<svg aria-hidden="true" style="width:0;height:0;position:absolute;overflow:hidden" xmlns="http://www.w3.org/2000/svg"><defs><symbol id="icon-right-arrow" viewBox="0 0 32 32"><path fill="#ff6b08" style="fill:var(--color1,#ff6b08)" d="M2 16a14 14 0 1 0 28.001 0A14 14 0 0 0 2 16zm30 0a15.997 15.997 0 0 1-16 16A16.003 16.003 0 0 1 0 16 16.003 16.003 0 0 1 16 0a16.003 16.003 0 0 1 16 16zM9 15a.997.997 0 0 0-1 1 .997.997 0 0 0 1 1h11.586l-4.294 4.292a.991.991 0 0 0-.293.708 1.006 1.006 0 0 0 .618.925 1.01 1.01 0 0 0 .766 0c.121-.05.232-.124.325-.217l6-6a.991.991 0 0 0 .293-.708 1.006 1.006 0 0 0-.293-.708l-6-6A.991.991 0 0 0 17 8.999a1.006 1.006 0 0 0-.925.618 1.01 1.01 0 0 0 0 .766c.05.121.124.232.217.325L20.586 15H9z"/></symbol><symbol id="icon-rsc" viewBox="0 0 32 32"><path fill="none" stroke="#fff" style="stroke:var(--color2,#fff)" stroke-linecap="round" stroke-width="2.462" d="m20.431 11.569-8.862 8.861m8.862.001v0z"/><path fill="none" stroke="#fff" style="stroke:var(--color2,#fff)" stroke-width="2.462" d="M16 30.769c8.157 0 14.769-6.612 14.769-14.769S24.157 1.231 16 1.231 1.231 7.843 1.231 16 7.843 30.769 16 30.769z"/></symbol><symbol id="icon-button-up" viewBox="0 0 32 32"><path fill="#ff6b08" style="fill:var(--color1,#ff6b08)" d="M16 0C7.163 0 0 7.163 0 16s7.163 16 16 16 16-7.163 16-16S24.837 0 16 0zm9.805 25.805A13.817 13.817 0 1 1 6.297 6.238a13.817 13.817 0 0 1 19.507 19.566z"/><path fill="#ff6b08" style="fill:var(--color1,#ff6b08)" d="M8.422 15.002 9.93 16.51l5.004-5.003V24h2.133V11.507l5.004 5.003 1.509-1.508-7.579-7.579-7.579 7.579z"/></symbol><symbol id="icon-facebook" viewBox="0 0 32 32"><path fill="#fff" style="fill:var(--color2,#fff)" d="M13.912 11.099v2.203h-1.613v2.693h1.613V24h3.315v-8.005h2.224s.21-1.291.31-2.704h-2.522v-1.84c0-.277.362-.646.72-.646h1.805V8h-2.456c-3.478 0-3.397 2.696-3.397 3.099z"/><path fill="#fff" style="fill:var(--color2,#fff)" d="M6.4 3.2a3.2 3.2 0 0 0-3.2 3.2v19.2a3.2 3.2 0 0 0 3.2 3.2h19.2a3.2 3.2 0 0 0 3.2-3.2V6.4a3.2 3.2 0 0 0-3.2-3.2H6.4zm0-3.2h19.2A6.4 6.4 0 0 1 32 6.4v19.2a6.396 6.396 0 0 1-6.4 6.4H6.4A6.4 6.4 0 0 1 0 25.6V6.4A6.402 6.402 0 0 1 6.4 0z"/></symbol><symbol id="icon-instagram" viewBox="0 0 32 32"><path fill="#fff" style="fill:var(--color2,#fff)" d="M9.404.096C11.11.017 11.654 0 16 0s4.89.019 6.595.096 2.868.349 3.887.743a7.88 7.88 0 0 1 2.833 1.847 7.803 7.803 0 0 1 1.844 2.832c.396 1.018.666 2.182.745 3.884.079 1.709.096 2.253.096 6.598 0 4.346-.019 4.89-.096 6.596-.077 1.702-.349 2.865-.745 3.884a7.85 7.85 0 0 1-1.844 2.835 7.832 7.832 0 0 1-2.833 1.844c-1.018.396-2.182.666-3.884.745C20.89 31.983 20.346 32 16 32s-4.89-.019-6.596-.096c-1.702-.077-2.865-.349-3.884-.745a7.862 7.862 0 0 1-2.835-1.844 7.846 7.846 0 0 1-1.846-2.833C.445 25.464.174 24.3.096 22.598.017 20.889 0 20.345 0 16c0-4.346.019-4.89.096-6.595s.349-2.868.743-3.887a7.854 7.854 0 0 1 1.847-2.833A7.843 7.843 0 0 1 5.518.839C6.536.445 7.7.174 9.402.096h.001zm13.061 2.88c-1.687-.077-2.193-.093-6.465-.093s-4.778.016-6.465.093c-1.561.071-2.407.332-2.972.551a4.972 4.972 0 0 0-1.84 1.196 4.966 4.966 0 0 0-1.196 1.84c-.22.564-.48 1.411-.551 2.972-.077 1.687-.093 2.193-.093 6.465s.016 4.778.093 6.465c.071 1.561.332 2.407.551 2.972a4.962 4.962 0 0 0 1.196 1.84c.516.531 1.146.94 1.84 1.196.564.22 1.411.48 2.972.551 1.687.077 2.192.093 6.465.093s4.778-.016 6.465-.093c1.561-.071 2.407-.332 2.972-.551a4.972 4.972 0 0 0 1.84-1.196 4.962 4.962 0 0 0 1.196-1.84c.22-.564.48-1.411.551-2.972.077-1.687.093-2.193.093-6.465s-.016-4.778-.093-6.465c-.071-1.561-.332-2.407-.551-2.972a4.972 4.972 0 0 0-1.196-1.84 4.966 4.966 0 0 0-1.84-1.196c-.564-.22-1.411-.48-2.972-.551zm-8.509 17.956a5.337 5.337 0 0 0 5.819-8.708 5.34 5.34 0 0 0-7.73 7.359 5.335 5.335 0 0 0 1.912 1.347zm-3.771-10.747A8.232 8.232 0 0 1 16 7.776a8.23 8.23 0 0 1 7.598 5.077 8.23 8.23 0 0 1 0 6.294 8.225 8.225 0 1 1-13.413-8.962zm15.863-1.184a1.947 1.947 0 0 0 .469-2.145 1.933 1.933 0 0 0-1.071-1.071 1.935 1.935 0 0 0-1.514.023 1.948 1.948 0 0 0-.592 3.156 1.942 1.942 0 0 0 2.71.039z"/></symbol><symbol id="icon-twitter" viewBox="0 0 32 32"><path fill="#fff" style="fill:var(--color2,#fff)" d="M24 11.116a6.642 6.642 0 0 1-1.885.509 3.257 3.257 0 0 0 1.443-1.787 6.644 6.644 0 0 1-2.086.784 3.302 3.302 0 0 0-2.396-1.021c-1.813 0-3.282 1.448-3.282 3.232 0 .253.029.499.085.736a9.377 9.377 0 0 1-6.765-3.376 3.166 3.166 0 0 0-.445 1.624 3.22 3.22 0 0 0 1.461 2.69 3.313 3.313 0 0 1-1.488-.405v.04a3.25 3.25 0 0 0 2.633 3.168 3.36 3.36 0 0 1-1.483.054 3.282 3.282 0 0 0 3.065 2.245 6.65 6.65 0 0 1-4.077 1.382c-.264 0-.525-.016-.782-.045a9.382 9.382 0 0 0 5.03 1.454c6.038 0 9.339-4.925 9.339-9.197l-.011-.419a6.497 6.497 0 0 0 1.642-1.669z"/><path fill="#fff" style="fill:var(--color2,#fff)" d="M6.4 3.2a3.2 3.2 0 0 0-3.2 3.2v19.2a3.2 3.2 0 0 0 3.2 3.2h19.2a3.2 3.2 0 0 0 3.2-3.2V6.4a3.2 3.2 0 0 0-3.2-3.2H6.4zm0-3.2h19.2A6.4 6.4 0 0 1 32 6.4v19.2a6.396 6.396 0 0 1-6.4 6.4H6.4A6.4 6.4 0 0 1 0 25.6V6.4A6.402 6.402 0 0 1 6.4 0z"/></symbol><symbol id="icon-rifr" viewBox="0 0 69 32"><path fill="#6723ae" style="fill:var(--color3,#6723ae)" d="M0 0h31.884v32H0V0zM42.909 6.846v3.168c-.176-.383-.436-.686-.777-.904s-.739-.328-1.194-.328c-.43 0-.813.102-1.152.3-.339.201-.604.48-.794.835s-.287.758-.287 1.207c0 .449.096.849.287 1.202s.458.629.8.83c.342.201.728.3 1.158.3.447 0 .841-.11 1.183-.328s.601-.521.777-.904v1.208h.372V6.846h-.372zm-.248 5.296c-.157.295-.394.54-.684.711a1.91 1.91 0 0 1-.984.256 1.93 1.93 0 0 1-.995-.256 1.793 1.793 0 0 1-.684-.711c-.165-.3-.248-.642-.248-1.02s.083-.72.251-1.02a1.855 1.855 0 0 1 1.673-.965c.364 0 .695.085.984.256.29.168.527.414.684.709.165.3.248.642.248 1.02s-.08.72-.245 1.02zM45.162 8.806h.361v4.623h-.361V8.806zM45.346 7.154c.083 0 .154.03.215.094s.094.138.094.226c0 .094-.03.174-.094.234-.061.063-.135.094-.218.094s-.154-.03-.215-.094a.325.325 0 0 1-.094-.234c0-.088.03-.165.094-.226s.135-.094.218-.094zM50.885 8.806v1.188c-.165-.372-.411-.664-.742-.88s-.711-.32-1.15-.32a2.09 2.09 0 0 0-1.092.289c-.32.193-.573.458-.755.794s-.273.72-.273 1.144c0 .425.091.808.273 1.144s.436.601.761.791.689.284 1.095.284c.436 0 .819-.105 1.15-.314s.573-.502.733-.874v.88c0 .573-.171 1.031-.513 1.37s-.797.51-1.37.51c-.325 0-.62-.058-.888-.174s-.527-.287-.772-.51l-.196.276c.276.248.568.436.871.562s.634.19.992.19c.447 0 .838-.091 1.174-.276s.596-.444.777-.78.273-.731.273-1.18V8.804h-.35zm-.237 3.198c-.16.287-.378.513-.659.675s-.593.245-.94.245c-.353 0-.67-.08-.946-.243s-.494-.389-.651-.675c-.157-.287-.234-.612-.234-.973s.077-.686.234-.976c.149-.284.375-.518.653-.678.278-.163.593-.243.94-.243s.662.083.94.243c.278.16.505.397.659.678.16.289.24.615.24.976s-.08.684-.237.97zM52.953 8.806h.361v4.623h-.361V8.806zM53.138 7.154c.083 0 .154.03.218.094a.315.315 0 0 1 .094.226c0 .094-.03.174-.094.234-.061.063-.135.094-.215.094s-.154-.03-.218-.094a.317.317 0 0 1-.094-.234.3.3 0 0 1 .094-.226.296.296 0 0 1 .215-.094zM57.325 13.109c-.325.218-.651.328-.981.328s-.584-.107-.761-.323c-.176-.215-.265-.538-.265-.962V9.241h-.67v-.32h.67V7.777h.353v1.144h1.563v.32h-1.563v2.867c0 .645.24.968.717.968.27 0 .535-.088.794-.267l.143.3zM61.75 10.358c-.005-.485-.154-.866-.447-1.144s-.706-.416-1.241-.416c-.331 0-.634.055-.91.165s-.565.273-.866.494l.176.284c.259-.196.513-.345.761-.449s.51-.154.786-.154c.455 0 .794.11 1.026.328.229.218.347.527.353.924v.452h-1.635c-.529 0-.948.11-1.254.334-.306.22-.46.524-.46.91 0 .259.063.494.19.698s.303.367.535.482c.229.119.493.176.794.176.405 0 .766-.074 1.081-.226s.568-.383.755-.698l.008.915h.361l-.014-3.074zm-.353 1.563c-.135.397-.356.692-.662.888s-.681.292-1.122.292c-.369 0-.667-.094-.888-.284s-.331-.438-.331-.744c0-.295.119-.521.358-.675s.584-.232 1.039-.232h1.607v.755h-.003zM63.501 6.846h.372v6.584h-.372V6.846zM42.504 20.354c-.006-.485-.154-.866-.447-1.144s-.706-.416-1.241-.416c-.331 0-.634.055-.91.165s-.565.273-.866.494l.176.284c.259-.196.513-.345.761-.449s.51-.154.786-.154c.455 0 .794.11 1.026.328.229.218.347.527.353.924v.452h-1.635c-.529 0-.948.11-1.254.334-.306.221-.46.524-.46.91 0 .259.063.494.19.698s.306.364.535.482c.229.119.494.176.794.176.405 0 .766-.074 1.083-.226a1.75 1.75 0 0 0 .755-.698l.008.915h.361l-.017-3.074zm-.356 1.564c-.135.397-.356.692-.662.888s-.681.292-1.122.292c-.372 0-.667-.094-.888-.284s-.331-.438-.331-.744c0-.295.119-.521.358-.675s.584-.232 1.039-.232h1.607v.755h-.003zM47.723 18.803v1.188a1.984 1.984 0 0 0-.742-.88 2.086 2.086 0 0 0-1.15-.32c-.405 0-.769.096-1.092.289-.32.193-.573.458-.755.794s-.273.72-.273 1.144c0 .425.091.808.273 1.144s.436.601.761.791c.323.19.689.284 1.094.284.436 0 .819-.105 1.15-.314s.573-.502.733-.874v.88c0 .573-.171 1.031-.513 1.37s-.797.51-1.37.51c-.325 0-.62-.058-.888-.174s-.527-.287-.772-.51l-.196.276c.276.248.568.436.871.562s.634.19.992.19c.447 0 .838-.091 1.174-.276s.596-.444.777-.78c.182-.336.273-.731.273-1.18v-4.116h-.35zm-.237 3.198c-.154.281-.38.516-.659.675a1.835 1.835 0 0 1-.94.243c-.353 0-.667-.083-.946-.243-.276-.163-.493-.389-.651-.675s-.234-.612-.234-.97c0-.361.077-.686.234-.976.149-.284.378-.518.653-.678.278-.163.593-.243.94-.243s.662.083.94.243c.278.16.505.397.659.678.16.289.24.615.24.976s-.08.684-.237.97zM53.435 19.955a1.936 1.936 0 0 0-.742-.857c-.328-.204-.711-.306-1.152-.306-.43 0-.813.099-1.152.298s-.604.474-.8.83c-.196.356-.292.755-.292 1.199s.096.841.287 1.194c.19.353.458.626.8.824s.728.298 1.158.298c.358 0 .692-.063.998-.19.298-.121.568-.309.786-.546l-.212-.24c-.187.207-.416.364-.684.474s-.557.165-.871.165c-.353 0-.67-.077-.954-.234s-.507-.378-.67-.662a2.121 2.121 0 0 1-.273-.984h4.017a2.961 2.961 0 0 0-.243-1.263zm-3.768.932c.047-.527.243-.951.582-1.274.342-.323.772-.482 1.29-.482s.94.16 1.263.48c.323.32.505.744.538 1.276h-3.672zM57.246 18.794c.56 0 .998.16 1.312.482s.471.764.471 1.326v2.82h-.372V20.67c0-.474-.132-.844-.397-1.108-.265-.267-.634-.4-1.106-.4-.524.011-.943.174-1.26.482-.314.311-.494.736-.535 1.274v2.503h-.372V18.8h.372v1.18c.154-.378.392-.667.711-.868.325-.201.717-.309 1.174-.32zM63.906 19.707a2.02 2.02 0 0 0-1.423-.56c-.364 0-.692.083-.981.248s-.513.397-.675.697a2.084 2.084 0 0 0-.243 1.017c0 .383.08.728.243 1.028s.386.535.675.7c.289.165.615.248.981.248.306 0 .59-.058.849-.168.251-.108.477-.27.653-.48l.22.24a2.05 2.05 0 0 1-.755.56c-.298.13-.623.196-.976.196-.43 0-.816-.099-1.158-.298s-.609-.474-.805-.824c-.196-.35-.292-.75-.292-1.194s.096-.844.292-1.199c.196-.356.463-.631.805-.83s.728-.298 1.158-.298c.331 0 .634.055.915.168s.524.273.728.48l-.212.267zM66.788 24.09c-.141.342-.32.607-.54.788a1.104 1.104 0 0 1-.733.276c-.347 0-.64-.088-.874-.267l.16-.32c.207.143.438.212.698.212a.871.871 0 0 0 .565-.212c.171-.143.312-.35.425-.62l.212-.524-1.9-4.621h.389l1.695 4.188 1.651-4.188h.389l-2.137 5.288z"/><path fill="#fff" style="fill:var(--color2,#fff)" d="M8.764 16.313c.532-.121.951-.353 1.26-.698s.463-.791.463-1.34c0-.397-.077-.736-.234-1.015s-.364-.502-.623-.673c-.259-.171-.554-.292-.888-.367s-.675-.113-1.031-.113H5.097v6.859a4.163 4.163 0 0 1 1.34-.232V16.46h.979l1.665 3.057c.623.143 1.147.13 1.629.036l-1.946-3.242zm-.658-.993c-.19.028-.383.041-.573.041H6.438v-2.123h1.213c.176 0 .353.014.527.041.168.025.334.08.482.16.141.077.259.185.35.314.091.132.138.3.138.507 0 .229-.05.414-.149.56s-.226.256-.378.336a1.533 1.533 0 0 1-.515.163zM11.827 12.111h1.34v6.664a4.567 4.567 0 0 0-1.34.392v-7.055zM14.868 12.111h4.858v1.174h-3.518v2.07h3.317v1.13h-3.317v3.019a3.809 3.809 0 0 1-.673-.248 9.613 9.613 0 0 0-.667-.284V12.11zM25.929 15.616c.309-.345.463-.791.463-1.34 0-.397-.077-.736-.234-1.015s-.364-.502-.623-.673c-.259-.171-.554-.292-.888-.367s-.675-.113-1.031-.113h-2.614v6.636a3.86 3.86 0 0 1 1.34.334v-2.616h.979l1.693 3.113a5.305 5.305 0 0 0 1.332-.466l-1.676-2.796c.532-.121.951-.353 1.26-.698zm-1.919-.296c-.19.028-.383.041-.573.041h-1.094v-2.123h1.213c.176 0 .353.014.527.041.168.025.334.08.482.16.141.077.259.185.35.314.091.132.138.3.138.507 0 .229-.05.414-.149.56s-.226.256-.378.336c-.152.08-.325.135-.516.163z"/></symbol><symbol id="icon-msd" viewBox="0 0 79 32"><path fill="#6723ae" style="fill:var(--color3,#6723ae)" d="M13.275 30.268c-3.256-.729-5.411-3.137-5.859-6.546l-.065-.497h14.586l-.062.669c-.09.966-.56 2.285-1.119 3.14-1.009 1.544-2.776 2.793-4.453 3.149-.67.142-2.54.195-3.027.086zM57.582 23.542c-1.255-.141-2.265-.536-3.086-1.207-.815-.666-1.412-2.047-1.412-3.265v-.553h2.887l.116.678c.148.863.446 1.342 1.06 1.702.424.249.597.286 1.325.282 1.701-.008 2.867-.98 2.609-2.175-.178-.82-.849-1.256-2.664-1.727-1.412-.366-2.153-.676-3.012-1.259-.808-.549-1.43-1.28-1.703-2.001-.314-.83-.253-2.12.139-2.962.547-1.174 1.956-2.21 3.532-2.597.896-.22 2.639-.164 3.4.109 1.734.621 2.842 1.976 3.048 3.726l.067.573h-1.42c-1.555 0-1.425.056-1.589-.68-.185-.829-.811-1.339-1.803-1.471-1.98-.263-3.3 1.702-1.989 2.961.394.379.686.5 2.587 1.079 2.516.766 3.564 1.408 4.168 2.552.257.486.278.625.278 1.785 0 1.207-.014 1.285-.34 1.948-.75 1.524-2.357 2.391-4.682 2.527-.46.027-1.143.014-1.517-.028zm-15.523-5.344c-1.196-2.788-2.218-5.114-2.271-5.168-.059-.061-.097 1.879-.097 4.998v5.098l-3.086-.058-.027-7.241-.027-7.241 2.312-.03c1.451-.019 2.343.009 2.397.075.047.058.731 1.719 1.521 3.693s1.455 3.568 1.479 3.544c.024-.024.692-1.662 1.484-3.64l1.44-3.596 4.749-.056v14.546h-3.139v-5.074c0-2.791-.035-5.072-.078-5.07s-.966 2.086-2.052 4.629a1233.992 1233.992 0 0 1-2.202 5.143l-.228.518-2.174-5.069zM6.422 23.019c-1.669-.221-2.987-.868-4.133-2.031-1.668-1.692-2.29-3.37-2.137-5.767.111-1.755.704-3.101 1.924-4.37 1.286-1.338 2.743-2.059 4.489-2.223l.799-.075v.519c0 1.226.671 2.93 1.626 4.129.898 1.128 2.52 2.132 4.001 2.475l.807.187-.519.081c-1.51.235-3.415 1.394-4.391 2.671-.934 1.222-1.389 2.328-1.507 3.666-.078.877-.051.857-.959.737zm15.587-.291c-.004-.758-.312-1.867-.788-2.831a7.504 7.504 0 0 0-2.594-2.915c-.832-.549-2.2-1.073-2.841-1.088-.391-.009-.376-.019.22-.149.767-.167 2.071-.677 2.623-1.027 1.72-1.089 3.022-3.165 3.31-5.273l.118-.868h.431c1.199 0 2.943.727 4.167 1.736 2.062 1.701 3.023 4.636 2.364 7.215-.765 2.993-3.039 5.022-6.139 5.48-.414.061-.779.111-.811.111s-.059-.177-.06-.392zM65.533 15.797V8.451l3.008.051c3.518.06 4.108.164 5.769 1.017 1.26.647 2.067 1.419 2.753 2.634 1.14 2.019 1.215 4.885.184 7.044-.615 1.288-1.99 2.588-3.357 3.174-.257.11-.865.307-1.352.437-.795.212-1.193.241-3.945.286l-3.06.049v-7.346z"/><path fill="#fff" style="fill:var(--color2,#fff)" d="M71.545 20.24c.893-.233 1.581-.645 2.162-1.297.726-.815.954-1.469 1.009-2.899.055-1.4-.109-2.084-.708-2.966-.881-1.297-2.232-1.879-4.369-1.883l-.968-.002V20.4H69.8c.677 0 1.376-.064 1.745-.16z"/><path fill="#6723ae" style="fill:var(--color3,#6723ae)" d="M7.514 7.828c.192-1.703 1.126-3.333 2.622-4.579.62-.516 1.972-1.193 2.83-1.416.696-.181 2.262-.21 3.069-.057 2.043.388 4.108 1.928 5.023 3.748.472.939.848 2.089.848 2.595v.355H7.441l.073-.645z"/></symbol><symbol id="icon-usetree" viewBox="0 0 25 32"><path fill="#6723ae" style="fill:var(--color3,#6723ae)" d="M4.965 30.737c0 .821-.41 1.263-1.126 1.263s-1.126-.443-1.126-1.263v-1.714h.418v1.658c0 .563.177.949.708.949s.708-.386.708-.949v-1.658h.418v1.714zm2.559-1.271c-.209-.08-.33-.121-.547-.121-.233 0-.507.08-.507.386 0 .563 1.247.434 1.247 1.392 0 .62-.475.869-1.062.869-.201 0-.402-.056-.595-.121l.04-.386c.145.056.386.145.603.145.233 0 .571-.137.571-.475 0-.652-1.247-.475-1.247-1.384 0-.515.41-.797.933-.797.193 0 .418.032.62.105l-.056.386zm1.279-.435h1.625v.37H9.221v.853h1.102v.37H9.221v.966h1.207v.37H8.803v-2.929zm3.355.362h-.901v-.37h2.213v.37h-.901v2.559h-.418l.008-2.559zm2.205-.362h.708c.571 0 1.126.088 1.126.788 0 .354-.257.604-.595.668v.008c.129.048.193.113.282.29l.547 1.167h-.475l-.443-1.014c-.129-.282-.266-.282-.483-.282h-.249v1.296h-.418v-2.921zm.418 1.255h.354c.394 0 .628-.177.628-.459 0-.266-.201-.435-.579-.435h-.402v.893zm2.664-1.255h1.625v.37h-1.207v.853h1.102v.37h-1.102v.966h1.207v.37h-1.625v-2.929zm2.808 0h1.625v.37h-1.207v.853h1.102v.37h-1.102v.966h1.207v.37h-1.625v-2.929zM15.795 10.348V6.574c0-.024.016-.048.032-.064l1.859-1.239a.073.073 0 0 0 .032-.064V3.903c0-.032.024-.064.056-.072a.641.641 0 0 0-.065-1.231.645.645 0 0 0-.797.628c0 .282.177.515.426.603.032.008.056.04.056.072v1.118c0 .024-.016.048-.032.064l-1.859 1.239a.073.073 0 0 0-.032.064v3.774c0 .024-.016.048-.032.064l-2.414 1.609c-.056.032-.129 0-.129-.064V9.776c0-.024.016-.048.032-.064l.893-.595a.073.073 0 0 0 .032-.064V6.47c0-.032.024-.064.056-.072a.641.641 0 0 0-.065-1.231.645.645 0 0 0-.797.628c0 .282.177.515.426.603.032.008.056.04.056.072v2.406c0 .024-.016.048-.032.064l-.724.483a.087.087 0 0 1-.088 0l-.724-.483a.073.073 0 0 1-.032-.064V1.321c0-.032.024-.064.056-.072A.641.641 0 0 0 11.92.018a.645.645 0 0 0-.797.628c0 .282.177.515.426.603.032.008.056.04.056.072v7.732c0 .024.016.048.032.064l.893.595c.024.016.032.04.032.064v2.317c0 .024-.016.048-.032.064l-.724.483a.087.087 0 0 1-.088 0l-.724-.483a.073.073 0 0 1-.032-.064V9.607c0-.024-.016-.048-.032-.064l-.893-.595a.073.073 0 0 1-.032-.064V5.191c0-.032.024-.064.056-.072a.641.641 0 0 0-.065-1.231.645.645 0 0 0-.797.628c0 .282.177.515.426.603.032.008.056.04.056.072v3.87c0 .024.016.048.032.064l.893.595c.024.016.032.04.032.064v1.995c0 .064-.072.105-.129.064l-2.414-1.609a.073.073 0 0 1-.032-.064V6.396c0-.024-.016-.048-.032-.064L6.172 5.093a.073.073 0 0 1-.032-.064V3.911c0-.032.024-.064.056-.072a.641.641 0 0 0-.065-1.231.645.645 0 0 0-.797.628c0 .282.177.515.426.603.032.008.056.04.056.072v1.295c0 .024.016.048.032.064l1.859 1.239c.024.016.032.04.032.064v3.774c0 .024.016.048.032.064l3.79 2.527c.024.016.032.04.032.064v12.271h.322V13.011c0-.024.016-.048.032-.064l3.79-2.527c.032-.016.048-.04.048-.072zm1.448-7.121c0-.177.145-.322.322-.322s.322.145.322.322c0 .177-.145.322-.322.322s-.322-.145-.322-.322zm-3.862 2.574c0-.177.145-.322.322-.322s.322.145.322.322c0 .177-.145.322-.322.322s-.322-.145-.322-.322zM11.45.652c0-.177.145-.322.322-.322s.322.145.322.322c0 .177-.145.322-.322.322S11.45.829 11.45.652zM9.519 4.514c0-.177.145-.322.322-.322s.322.145.322.322c0 .177-.145.322-.322.322s-.322-.145-.322-.322zM5.657 3.227c0-.177.145-.322.322-.322s.322.145.322.322c0 .177-.145.322-.322.322s-.322-.145-.322-.322z"/><path fill="#6723ae" style="fill:var(--color3,#6723ae)" d="m18.604 12.383 1.022-.684a.073.073 0 0 0 .032-.064v-1.199c0-.024.016-.048.032-.064l1.859-1.239a.073.073 0 0 0 .032-.064V7.773c0-.032.024-.064.056-.072a.641.641 0 0 0-.065-1.231.645.645 0 0 0-.797.628c0 .282.177.515.426.603.032.008.056.04.056.072v1.118c0 .024-.016.048-.032.064l-1.448.966c-.056.032-.129 0-.129-.064V5.198c0-.032.024-.064.056-.072a.641.641 0 0 0-.065-1.231.645.645 0 0 0-.797.628c0 .282.177.515.426.603.032.008.056.04.056.072v6.268c0 .024-.016.048-.032.064l-.797.531a.114.114 0 0 1-.048.016h-.652c-.048 0-.08-.032-.08-.08v-1.658c0-.032.024-.064.056-.072a.641.641 0 0 0-.065-1.231.645.645 0 0 0-.797.628c0 .282.177.515.426.603.032.008.056.04.056.072v1.658c0 .048-.032.08-.08.08h-2.679c-.016 0-.032.008-.048.016l-1.987 1.328a.073.073 0 0 0-.032.064v11.788h.322V13.654c0-.024.016-.048.032-.064l1.762-1.175a.114.114 0 0 1 .048-.016h3.822c.016 0 .032-.008.048-.016zm2.502-5.294c0-.177.145-.322.322-.322s.322.145.322.322c0 .177-.145.322-.322.322s-.322-.145-.322-.322zm-1.931-2.575c0-.177.145-.322.322-.322s.322.145.322.322c0 .177-.145.322-.322.322s-.322-.145-.322-.322zm-1.931 5.15c0-.177.145-.322.322-.322s.322.145.322.322c0 .177-.145.322-.322.322s-.322-.145-.322-.322z"/><path fill="#6723ae" style="fill:var(--color3,#6723ae)" d="M13.864 24.951v-9.366c0-.024.016-.048.032-.064l1.762-1.175a.114.114 0 0 1 .048-.016h3.814c.016 0 .032-.008.048-.016l1.891-1.263a.114.114 0 0 1 .048-.016h.209c.032 0 .064.024.072.056a.637.637 0 0 0 .604.426.65.65 0 0 0 .628-.796.648.648 0 0 0-.475-.475.635.635 0 0 0-.756.41.077.077 0 0 1-.072.056h-.314c-.016 0-.032.008-.048.016l-1.891 1.263a.114.114 0 0 1-.048.016h-3.814c-.016 0-.032.008-.048.016l-1.987 1.328a.073.073 0 0 0-.032.064v9.857h10.943v-.322H13.865zm8.529-12.391c.177 0 .322.145.322.322s-.145.322-.322.322c-.177 0-.322-.145-.322-.322s.145-.322.322-.322zm-11.458.853-1.022-.684a.114.114 0 0 0-.048-.016H7.982c-.016 0-.032-.008-.048-.016l-1.762-1.175a.073.073 0 0 1-.032-.064V10.34c0-.032.024-.064.056-.072a.641.641 0 0 0-.065-1.231.645.645 0 0 0-.797.628c0 .282.177.515.426.603.032.008.056.04.056.072v1.296c0 .024.016.048.032.064l1.987 1.328a.114.114 0 0 0 .048.016h1.883c.016 0 .032.008.048.016l.797.531c.024.016.032.04.032.064v1.995c0 .064-.072.105-.129.064l-2.543-1.698A.114.114 0 0 0 7.923 14H6.04c-.016 0-.032-.008-.048-.016L4.19 12.785V7.756c0-.032.024-.064.056-.072a.641.641 0 0 0-.065-1.231.645.645 0 0 0-.797.628c0 .282.177.515.426.603.032.008.056.04.056.072V9.84c0 .064-.072.105-.129.064l-1.448-.966a.073.073 0 0 1-.032-.064V6.468c0-.032.024-.064.056-.072a.641.641 0 0 0-.065-1.231.651.651 0 0 0-.78.636c0 .282.177.515.426.603.032.008.056.04.056.072v2.583c0 .024.016.048.032.064l1.859 1.239c.024.016.032.04.032.064v2.213c0 .048-.032.081-.08.081H1.83a.077.077 0 0 1-.072-.056.641.641 0 0 0-1.231.065.645.645 0 0 0 .628.797.635.635 0 0 0 .603-.426.077.077 0 0 1 .072-.056h2.14c.016 0 .032.008.048.016l1.891 1.263a.114.114 0 0 0 .048.016H7.84c.016 0 .032.008.048.016l2.728 1.818c.024.016.032.04.032.064v8.714H.027v.322H10.97V13.485a.155.155 0 0 0-.04-.072zM5.657 9.664c0-.177.145-.322.322-.322s.322.145.322.322c0 .177-.145.322-.322.322s-.322-.145-.322-.322zM1.795 5.801c0-.177.145-.322.322-.322s.322.145.322.322c0 .177-.145.322-.322.322s-.322-.145-.322-.322zm-.644 7.403c-.177 0-.322-.145-.322-.322s.145-.322.322-.322c.177 0 .322.145.322.322s-.145.322-.322.322zm2.575-6.115c0-.177.145-.322.322-.322s.322.145.322.322c0 .177-.145.322-.322.322s-.322-.145-.322-.322z"/></symbol><symbol id="icon-paradox" viewBox="0 0 31 32"><path fill="#6723ae" style="fill:var(--color3,#6723ae)" d="M.331 30.627h.363v1.336H.331v-1.336zm3.202 0h.352v1.336H3.49l-.728-.931h-.004v.931h-.352v-1.336h.421l.701.931h.004v-.931zm2.432.254h-.496v-.254h1.354v.254h-.496v1.081h-.363v-1.081zm2.443-.254h1.248v.254h-.885v.277h.84v.243h-.84v.307h.892v.254H8.408v-1.336zm2.914 0h.971c.37 0 .432.227.432.363 0 .163-.065.267-.217.322v.004c.159.024.183.226.183.357 0 .065.006.222.069.29h-.397c-.034-.062-.036-.116-.036-.256 0-.187-.08-.234-.193-.234h-.451v.49h-.363v-1.336zm.363.591h.481c.08 0 .174-.045.174-.17 0-.133-.105-.166-.193-.166h-.462v.337zm3.65.47h-.613l-.109.275h-.391l.587-1.336h.438l.588 1.336h-.391l-.109-.275zm-.307-.773-.21.529h.419l-.21-.529zm3.494.217c-.034-.193-.193-.289-.382-.289-.344 0-.417.27-.417.451s.073.451.417.451c.176 0 .346-.084.382-.296h.395c-.045.389-.365.55-.789.55-.487 0-.789-.21-.789-.705s.303-.705.789-.705c.322 0 .731.082.786.543h-.391zm2.394-.251h-.495v-.254h1.354v.254h-.496v1.081h-.363v-1.081zm2.443-.254h.363v1.336h-.363v-1.336zm1.908 0h.399l.387 1.018.387-1.018h.398l-.593 1.336h-.385l-.593-1.336zm3.116 0h1.248v.254h-.885v.277h.84v.243h-.84v.307h.892v.254h-1.255v-1.336zM.302 26.529h1.219v.328h.01c.227-.262.574-.403 1.133-.403.816 0 1.566.448 1.566 1.47s-.75 1.471-1.566 1.471c-.514 0-.876-.126-1.093-.388h-.01v1.264H.302v-3.742zm1.954 2.019c.453 0 .685-.272.685-.625 0-.362-.201-.624-.69-.624-.483 0-.69.231-.69.624 0 .388.206.625.695.625zm2.518-1.183c.076-.378.232-.61.544-.755.307-.141.766-.191 1.43-.191 1.284 0 1.793.287 1.793 1.108v1.33c0 .212.055.338.116.428H7.368a1.104 1.104 0 0 1-.045-.272c-.282.262-.71.383-1.38.383-.846 0-1.38-.227-1.38-.932 0-.504.358-.826 1.289-.866l1.063-.05c.252-.015.337-.076.337-.227 0-.181-.227-.267-.584-.267-.287 0-.574.045-.635.312H4.774zm2.508.665c-.212.045-.569.076-1.017.116-.232.02-.343.096-.343.272 0 .192.156.312.468.312.423 0 .891-.106.891-.579v-.121zm1.924-1.501h1.219v.529h.01c.327-.428.74-.604 1.173-.604.136 0 .277.01.413.03v1.128c-.222-.055-.408-.101-.629-.101-.448 0-.927.146-.927.741v1.032H9.206v-2.755zm3.263.836c.076-.378.232-.61.544-.755.307-.141.765-.191 1.43-.191 1.284 0 1.793.287 1.793 1.108v1.33c0 .212.055.338.116.428h-1.289a1.102 1.102 0 0 1-.046-.272c-.282.262-.71.383-1.38.383-.846 0-1.38-.227-1.38-.932 0-.504.358-.826 1.289-.866l1.063-.05c.252-.015.337-.076.337-.227 0-.181-.226-.267-.584-.267-.287 0-.574.045-.635.312h-1.259zm2.508.665c-.211.045-.569.076-1.017.116-.232.02-.343.096-.343.272 0 .192.156.312.468.312.423 0 .892-.106.892-.579v-.121zm4.482.962h-.01c-.227.262-.574.403-1.133.403-.816 0-1.566-.448-1.566-1.471s.75-1.47 1.566-1.47c.514 0 .876.126 1.093.388h.01v-1.279h1.259v3.722h-1.219v-.292zm-.735-1.692c-.453 0-.685.272-.685.624 0 .363.202.625.69.625.484 0 .69-.232.69-.625 0-.388-.206-.624-.695-.624zm4.517-.882c1.421 0 2.04.474 2.04 1.486 0 1.017-.619 1.491-2.04 1.491s-2.039-.474-2.039-1.491c0-1.012.619-1.486 2.039-1.486zm0 2.161c.509 0 .72-.232.72-.675 0-.433-.211-.67-.72-.67-.504 0-.72.236-.72.67 0 .443.216.675.72.675zm2.211.705 1.269-1.441-1.163-1.314h1.541l.499.741.499-.741h1.541l-1.183 1.314 1.289 1.441h-1.602l-.544-.781-.544.781h-1.601zm.703-16.368c-.149-.729.61-1.361.251-2.107-.356-.735-2.091-.699-2.117-1.545-.036-.988 1.402-.484 2.004-.465 0-1.583-.623-2.934-2.326-1.866-.286 0-.675-.058-.811-.312-.51-.936 1.048-1.136 1.09-1.892.024-.438-.511-.715-.677-1.071-.114-.237-.013-.54-.013-.792 0-.106-.123-.11-.206-.131-.322-.083-.62.102-.951.031-.366-.079-.568-.414-.894-.566 0 .135-.233.311-.31.421-.24.333-1.104 1.512-1.629 1-.206-.2-.172-.555-.131-.826.303-2.042-.443-2.264-2.237-2.549-.435-.073-1.546-.335-2.054-.18 0 .35.443 2.795-.342 2.667-.934 0-.424-2.427-1.778-2.734-.223.082-.518.116-.662.329-.192.28.19 1.134.274 1.464.102.417.081.976-.091 1.34v.067c-1.532 0-1.375-3.396-3.76-1.733 0 .908 2.163 2.058 1.421 3.056a.884.884 0 0 1-.548.335c-1.161.139-1.62-2.365-2.917-2.143a.72.72 0 0 0-.491.383c-.306.591 1.13 1.454 1.338 2.042.114.321.014.616-.035.926-1.092 0-2.377-1.567-3.394-.573-.161.154-.335.368-.272.608.104.415.844.345 1.069.735l.024.049c.385.875-.501 1.521-.513 2.314-.009.395.299.619.172 1.053-.435 1.481-1.842-.171-2.511.463-.603.568.083 1.748.128 2.417.028.437-.21.766-.237 1.194-.027.389.253.681.349 1.025.129.473-.007.997.255 1.406.756 1.17 2.045-2.011 2.617-.67.463 1.085-1.882 1.026-1.939 1.848-.06.818 1.366 1.554 1.907 2.082.476.464.853 1.057.916 1.724.061.665-.25 1.34-.42 1.924.241 0 .417.104.671.031 1.189-.352 1.888-2.253 1.692-3.427-.167-.989-.708-1.838-.774-2.872-.066-1.019.927-2.728-.024-3.456-.042-.025-.085-.051-.128-.075 0 .106-.227.142-.343.145a.775.775 0 0 1-.515-.184c-.205-.161-.325-.409-.161-.647.229-.336.878-.27.955-.724.165-1.002-1.934-1.199-.664-2.434.235-.231.564-.412.929-.383.589.046 2.008.466 1.928 1.221-.038.342-.326.663-.202 1.046.127.397.71.352.864.727.208.509-.216.885-.175 1.358.01.119.062.162.152.234.179.139.524.187.628.419.265.589-.448 1.305.503 1.623 0-.419-.095-.983.273-1.2 0 .101.204.24.265.338.3.467.424.908 1.034 1.062.022-.886-.479-1.644-.479-1.668.438 0 .706.578 1.202.446.454-.123.052-.627-.054-.839-.301-.605.131-1.096-.052-1.654-.194-.591-1.776-1.01-2.262-1.486-.163-.157-.336-.417-.255-.665.298-.927 1.392-.374 2.155-.593.357-.105.628-.352.883-.632.35-.389.596-1.025.376-1.555-.13-.315-.359-.553-.303-.949.23-1.667 2.928-1.574 4.103-.969.601.308 1.17 1.014.853 1.735-.282.632-1.044.264-1.582.499-.474.205-1.095 1.161-1.253 1.612-.239.678.43 1.19.475 1.849.091 1.441-.586 2.764-.873 4.064-.054.238.157.56.03.779-.207.351-.639.221-.984.349-.268.1-.39.309-.624.457-.503.31-1.084.461-1.15 1.15.318 0 .551-.171.888-.201.048-.004.067.026.069.066-.001.024-.007.044-.008.066-.079.599-.551 1.107-.264 1.734.424 0 .524-.99 1.231-.732.083 0 .073.005.094.077.144.461.203.856.452 1.257.068 0 .287-.062.28-.239-.019-.425-.085-1.066.059-1.429.207-.538.579-.469.483-1.198.109 0 .238-.188.357-.228.864-.302 1.007-.803 2.104-.767.264.007.532.02.754.129.193 0 .12-.298.052-.53-.384-1.274-.871-2.535-.871-4.003h.205c0 .164.65 1.047.775 1.252.163.26.691 1.472 1.159 1.207.218-.128.349-1.65.476-1.986.463-1.248 1.773-1.522 2.542-.315.729 1.141.279 3.55-.654 4.433-.367.341-.885.343-1.236.663-.367.334-.038.963-.099 1.404-.057.407-.328.791-.628 1.085-.67.651-1.558.945-2.242 1.552-.291.256-.354.68-.709.837-.349.151-.778-.042-1.142.064-.265.167-.532.333-.8.5-.492.256-1.285.689-1.547.768 0 1.046 2.5.489 3.015.211.365-.197.474-.677.836-.833.385-.169.722.225 1.138.082.385-.139.746-.449 1.086-.676.655-.445 1.362-.82 1.972-1.343.207-.182.533-.43.622-.676.159-.442-.541-1.53.698-1.351.96.128 1.916-1.802 2.1-2.487.108-.527.212-1.06.318-1.589.134-.318.264-.636.398-.957.193-.786-.508-.76-.623-1.33zm-21.75 2.021c-.769.162-1.308-.721-.961-1.342.145-.264.369-.383.619-.529.303.027.565.055.786.238.642.533.329 1.468-.445 1.633zm5.131-5.604c-.07.034-.202-.029-.278-.062-.977-.414-.573-1.045-.2-1.738.75.298.916 1.586.478 1.8zm1.367 2.866c.903.441 1.215 1.207 1.184 1.595-.01.125-.086.231-.086.231s-.232.082-.488-.02c-.725-.291-.611-1.066-.611-1.806zm7.194 3.192c-.038.312-.153.45-.355.675-.35 0-.674-.169-.779-.481-.096-.282-.008-.636.016-.92.079-1.009.155-2.157.49-3.065.335.743.218 1.614.382 2.457.084.428.302.849.246 1.335zM23.008 11c-.46 0-.907.054-1.361-.036-1.712-.339-.236-2.26.13-3.031.697.634 1.471 2.063 1.231 3.067zm7.152 15.496a.417.417 0 1 1 0 .833.417.417 0 0 1 0-.833zm.314.417c0-.181-.14-.327-.314-.327s-.314.146-.314.327c0 .181.14.327.314.327s.314-.146.314-.327zm-.34.036h-.069v.197h-.081v-.466h.182c.116 0 .175.04.175.134 0 .085-.054.12-.12.132l.128.2h-.094l-.119-.197zm.014-.069c.059 0 .112-.006.112-.072 0-.055-.058-.064-.105-.064h-.092v.136h.085z"/></symbol><symbol id="icon-mi" viewBox="0 0 41 32"><path fill="#6723ae" style="fill:var(--color3,#6723ae)" d="M15.113 8.729 0 .004v17.451l5.038 2.908V8.729l10.076 5.817 10.075-5.817v5.817l-10.075 5.817v5.817l10.076 5.817V26.18l-5.038-2.909 10.076-5.817V.003L15.115 8.728zm25.189 14.542-15.113 8.725v-5.817l10.076-5.817v-5.817l5.038-2.909V23.27zM35.264 2.912v5.817l5.038-2.909V.003l-5.038 2.908z"/></symbol><symbol id="icon-arrow-forward" viewBox="0 0 16 32"><path fill="#a08db5" style="fill:var(--color4,#a08db5)" d="M2.674 32a2.277 2.277 0 0 0 1.782-.846l11.04-13.714a2.287 2.287 0 0 0 0-2.902L4.067.824A2.29 2.29 0 0 0 .547 3.75l10.217 12.251L.89 28.252a2.287 2.287 0 0 0-.308 2.444A2.289 2.289 0 0 0 2.673 32z"/></symbol><symbol id="icon-ellipse-1" viewBox="0 0 32 32"><path fill="#6723ae" style="fill:var(--color3,#6723ae)" d="M32 16c0 8.837-7.163 16-16 16S0 24.837 0 16 7.163 0 16 0s16 7.163 16 16z"/></symbol><symbol id="icon-ellipse-2" viewBox="0 0 32 32"><path fill="#a08db5" style="fill:var(--color4,#a08db5)" d="M32 16c0 8.837-7.163 16-16 16S0 24.837 0 16 7.163 0 16 0s16 7.163 16 16z"/></symbol><symbol id="icon-arrow-back" viewBox="0 0 16 32"><path fill="#a08db5" style="fill:var(--color4,#a08db5)" d="M13.326 32a2.277 2.277 0 0 1-1.782-.846L.504 17.44a2.287 2.287 0 0 1 0-2.902L11.933.824a2.29 2.29 0 0 1 3.52 2.926L5.236 16.001l9.874 12.251a2.287 2.287 0 0 1 .308 2.444A2.289 2.289 0 0 1 13.327 32z"/></symbol><symbol id="icon-left-arrow" viewBox="0 0 32 32"><path fill="#ff6b08" style="fill:var(--color1,#ff6b08)" d="M30 16a13.996 13.996 0 0 1-14 14 14 14 0 1 1 14-14zM0 16a15.997 15.997 0 0 0 16 16 16.003 16.003 0 0 0 16-16A16.003 16.003 0 0 0 16 0 16.003 16.003 0 0 0 0 16zm23-1a.997.997 0 0 1 1 1 .997.997 0 0 1-1 1H11.414l4.294 4.292a.991.991 0 0 1 .293.708 1.006 1.006 0 0 1-.618.925 1.01 1.01 0 0 1-.766 0 1.002 1.002 0 0 1-.325-.217l-6-6A.991.991 0 0 1 7.999 16a1.006 1.006 0 0 1 .293-.708l6-6A.991.991 0 0 1 15 8.999a1.006 1.006 0 0 1 .925.618 1.01 1.01 0 0 1 0 .766c-.05.121-.124.232-.217.325L11.414 15H23z"/></symbol><symbol id="icon-linkedIn" viewBox="0 0 32 32"><path d="M24 17.808v5.915h-3.429v-5.52c0-1.386-.496-2.331-1.738-2.331-.947 0-1.512.637-1.76 1.254-.09.221-.114.528-.114.835v5.762h-3.43s.046-9.347 0-10.315h3.43v1.461l-.022.034h.022v-.032c.456-.704 1.269-1.706 3.091-1.706 2.256 0 3.949 1.475 3.949 4.643zM9.941 8.434C8.768 8.434 8 9.205 8 10.216 8 11.208 8.746 12 9.896 12h.022c1.197 0 1.941-.794 1.941-1.784-.022-1.011-.744-1.782-1.918-1.782zM8.203 23.723h3.43V13.408h-3.43v10.315z"/><path fill="#fff" style="fill:var(--color2,#fff)" d="M6.4 3.2a3.2 3.2 0 0 0-3.2 3.2v19.2a3.2 3.2 0 0 0 3.2 3.2h19.2a3.2 3.2 0 0 0 3.2-3.2V6.4a3.2 3.2 0 0 0-3.2-3.2H6.4zm0-3.2h19.2A6.402 6.402 0 0 1 32 6.4v19.2a6.4 6.4 0 0 1-6.4 6.4H6.4A6.4 6.4 0 0 1 0 25.6V6.4A6.402 6.402 0 0 1 6.4 0z"/></symbol><symbol id="icon-play" viewBox="0 0 32 32"><path d="M16 30A14.002 14.002 0 0 1 2 16 14.002 14.002 0 0 1 16 2a14.002 14.002 0 0 1 14 14 14.002 14.002 0 0 1-14 14zm0 2a16.003 16.003 0 0 0 16-16A16.003 16.003 0 0 0 16 0 16.003 16.003 0 0 0 0 16a16.003 16.003 0 0 0 16 16z"/><path d="M12.542 10.11a.997.997 0 0 1 1.04.076l7 5a.997.997 0 0 1 .308 1.272.998.998 0 0 1-.308.356l-7 5A.999.999 0 0 1 12.001 21V11a.997.997 0 0 1 .542-.89z"/></symbol><symbol id="icon-menu" viewBox="0 0 40 32"><path d="M0 2.286C0 1.68.234 1.098.651.67S1.633.001 2.222.001h35.556c.589 0 1.155.241 1.571.669S40 1.68 40 2.286s-.234 1.188-.651 1.616a2.19 2.19 0 0 1-1.571.669H2.222c-.589 0-1.155-.241-1.571-.669S0 2.892 0 2.286zM0 16c0-.606.234-1.188.651-1.616s.982-.669 1.571-.669h35.556c.589 0 1.155.241 1.571.669S40 15.394 40 16s-.234 1.188-.651 1.616a2.19 2.19 0 0 1-1.571.669H2.222c-.589 0-1.155-.241-1.571-.669S0 16.606 0 16zm0 13.714c0-.606.234-1.188.651-1.616s.982-.669 1.571-.669h35.556c.589 0 1.155.241 1.571.669s.651 1.01.651 1.616c0 .606-.234 1.188-.651 1.616s-.982.669-1.571.669H2.222c-.589 0-1.155-.241-1.571-.669S0 30.32 0 29.714z"/></symbol><symbol id="icon-logo" viewBox="0 0 77 32"><path fill="#fff" style="fill:var(--color2,#fff)" d="M10.585 6.999c0 .652-.113 1.251-.34 1.798a4.274 4.274 0 0 1-.923 1.418c-.394.393-.862.701-1.403.925s-1.13.336-1.765.336H.968c-.138 0-.266-.025-.384-.075s-.222-.117-.31-.201a1.013 1.013 0 0 1-.273-.701V1.754a1.02 1.02 0 0 1 .273-.694.953.953 0 0 1 .694-.284h5.186c.635 0 1.224.112 1.765.336s1.01.535 1.403.933c.394.393.702.866.923 1.418.227.547.34 1.144.34 1.791V7zm-1.92-1.746c0-.378-.062-.724-.185-1.037a2.188 2.188 0 0 0-.51-.798 2.25 2.25 0 0 0-.798-.515 2.684 2.684 0 0 0-1.019-.187H1.92v6.82h4.233c.374 0 .714-.06 1.019-.179a2.38 2.38 0 0 0 .798-.515c.222-.224.392-.49.51-.798.123-.313.185-.662.185-1.045V5.253zM23.115 6.081c0 .269-.047.56-.14.873a2.614 2.614 0 0 1-.458.866c-.207.264-.48.485-.82.664-.335.179-.744.269-1.226.269h-3.464V6.91h3.464c.261 0 .463-.08.606-.239a.887.887 0 0 0 .214-.604c0-.254-.081-.453-.244-.597a.824.824 0 0 0-.576-.216h-3.464c-.261 0-.463.082-.606.246a.86.86 0 0 0-.214.597v2.709c0 .259.079.46.236.604a.87.87 0 0 0 .598.216h3.45v1.851h-3.464a2.96 2.96 0 0 1-.864-.142 2.66 2.66 0 0 1-.857-.455 2.63 2.63 0 0 1-.657-.828c-.177-.343-.266-.759-.266-1.246V6.083c0-.269.047-.557.14-.866a2.61 2.61 0 0 1 .451-.866c.212-.269.485-.492.82-.672.34-.179.751-.269 1.234-.269h3.464c.266 0 .552.047.857.142.31.095.596.249.857.463.266.209.488.485.665.828.177.338.266.751.266 1.239zM34.396 8.752c0 .333-.042.634-.126.903a2.737 2.737 0 0 1-.332.701 2.384 2.384 0 0 1-.48.515 2.826 2.826 0 0 1-.576.343 2.971 2.971 0 0 1-.606.201c-.202.04-.394.06-.576.06h-5.2v-1.94h5.186c.261 0 .458-.067.591-.201s.199-.328.199-.582c-.025-.517-.283-.776-.776-.776h-2.977c-.424 0-.783-.075-1.079-.224s-.537-.336-.724-.56a2.236 2.236 0 0 1-.399-.724 2.487 2.487 0 0 1-.118-.724c0-.433.076-.796.229-1.089.153-.298.345-.54.576-.724s.483-.316.753-.395c.271-.085.524-.127.761-.127h4.72v1.94h-4.705a.614.614 0 0 0-.236.037.27.27 0 0 0-.126.09.25.25 0 0 0-.044.119.961.961 0 0 0-.007.119c.005.08.02.142.044.187s.054.077.089.097a.36.36 0 0 0 .126.037H31.7c.492 0 .911.09 1.256.269s.623.405.835.679a2.6 2.6 0 0 1 .458.88c.099.318.148.614.148.888zM39.967 1.753h-1.921V0h1.921v1.753zm0 9.723h-1.921V3.41h1.921v8.066zM52.77 12.252c0 .333-.042.632-.126.895a2.586 2.586 0 0 1-.332.701 2.173 2.173 0 0 1-.48.515 2.693 2.693 0 0 1-.576.351 2.724 2.724 0 0 1-.606.194 2.65 2.65 0 0 1-.576.067H46.61v-1.94h3.464c.261 0 .456-.067.584-.201s.192-.328.192-.582V6.126c0-.254-.064-.445-.192-.575-.128-.134-.323-.201-.584-.201H46.61c-.236 0-.423.075-.561.224a.765.765 0 0 0-.207.552v2.626c0 .254.066.448.199.582s.327.201.584.201h3.45v1.94h-3.464c-.182 0-.374-.02-.576-.06a2.919 2.919 0 0 1-1.175-.544 2.384 2.384 0 0 1-.48-.515 2.687 2.687 0 0 1-.332-.701 3.018 3.018 0 0 1-.126-.903V6.126c0-.184.02-.378.059-.582a3.117 3.117 0 0 1 .539-1.186c.143-.184.313-.346.51-.485.202-.139.433-.251.694-.336s.556-.127.886-.127h3.464c.182 0 .374.022.576.067.207.04.409.104.606.194.202.09.394.206.576.351.182.139.342.311.48.515.138.199.249.43.332.694s.126.562.126.895v6.126zM65.647 11.476h-1.921V6.999c0-.254-.044-.48-.133-.679a1.468 1.468 0 0 0-.872-.85 1.691 1.691 0 0 0-.643-.119h-3.361v6.126h-1.921V4.374a.937.937 0 0 1 .281-.679.953.953 0 0 1 .687-.284h4.329c.241 0 .495.027.761.082.271.055.537.144.798.269.266.119.517.274.753.463.241.184.453.41.635.679.187.264.335.57.443.918s.162.741.162 1.179v4.477zM12.343 31.851h-1.935v-6.372L7.003 31.53a.84.84 0 0 1-.355.351.993.993 0 0 1-.48.119.991.991 0 0 1-.473-.119.865.865 0 0 1-.34-.351l-3.42-6.051v6.372H.014v-9.872a.965.965 0 0 1 .709-.948.929.929 0 0 1 .31-.022.846.846 0 0 1 .295.067.797.797 0 0 1 .266.157.846.846 0 0 1 .199.239l4.373 7.678 4.373-7.678a.944.944 0 0 1 .465-.403.998.998 0 0 1 .628-.037c.207.06.377.177.51.351s.199.373.199.597v9.872zM25.169 26.456c0 .269-.047.56-.14.873a2.633 2.633 0 0 1-.458.866c-.207.264-.48.485-.82.664-.335.179-.744.269-1.226.269h-3.464v-1.843h3.464c.261 0 .463-.08.606-.239a.887.887 0 0 0 .214-.604c0-.254-.081-.453-.244-.597a.824.824 0 0 0-.576-.216h-3.464c-.261 0-.463.082-.606.246a.86.86 0 0 0-.214.597v2.709c0 .259.079.46.236.604a.87.87 0 0 0 .598.216h3.45v1.85h-3.464a2.96 2.96 0 0 1-.864-.142 2.66 2.66 0 0 1-.857-.455 2.63 2.63 0 0 1-.657-.828c-.177-.343-.266-.759-.266-1.246v-2.723c0-.269.047-.557.14-.866a2.61 2.61 0 0 1 .451-.866c.212-.269.485-.492.82-.671.34-.179.751-.269 1.234-.269h3.464c.266 0 .552.047.857.142.31.095.596.249.857.463.266.209.488.485.665.828.177.338.266.751.266 1.239zM37.322 26.456c0 .269-.047.56-.14.873a2.633 2.633 0 0 1-.458.866c-.207.264-.48.485-.82.664-.335.179-.744.269-1.226.269h-3.464v-1.843h3.464c.261 0 .463-.08.606-.239a.887.887 0 0 0 .214-.604c0-.254-.081-.453-.244-.597a.824.824 0 0 0-.576-.216h-3.464c-.261 0-.463.082-.606.246a.86.86 0 0 0-.214.597v2.709c0 .259.079.46.236.604a.87.87 0 0 0 .598.216h3.45v1.85h-3.464a2.96 2.96 0 0 1-.864-.142 2.66 2.66 0 0 1-.857-.455 2.63 2.63 0 0 1-.657-.828c-.177-.343-.266-.759-.266-1.246v-2.723c0-.269.047-.557.14-.866.093-.313.244-.602.451-.866.212-.269.485-.492.82-.671.34-.179.751-.269 1.234-.269h3.464c.266 0 .552.047.857.142.31.095.596.249.857.463.266.209.488.485.665.828.177.338.266.751.266 1.239zM48.145 25.725h-3.354v6.126h-1.943v-6.126h-2.497v-1.94h2.497v-2.634h1.943v2.634h3.354v1.94zM62.27 30.873c0 .139-.025.269-.074.388s-.118.224-.207.313a.998.998 0 0 1-.687.276h-4.329c-.409 0-.822-.045-1.241-.134s-.825-.226-1.219-.41c-.389-.189-.756-.428-1.101-.716s-.648-.629-.909-1.022a5.176 5.176 0 0 1-.606-1.358 6.147 6.147 0 0 1-.222-1.709v-5.35h1.921v5.35c0 .547.074 1.01.222 1.388.153.378.345.694.576.948s.485.453.761.597c.276.144.537.251.783.321.251.07.47.114.657.134.192.015.318.022.377.022h3.376v-8.76h1.921v9.722zM77.333 25.628c0 .443-.054.838-.162 1.186s-.256.657-.443.925c-.182.264-.394.49-.635.679s-.495.343-.761.463a3.687 3.687 0 0 1-.798.261 3.724 3.724 0 0 1-.753.082h-4.344v-1.94h4.344c.246-.02.468-.07.665-.149.202-.085.374-.197.517-.336s.254-.306.332-.5c.079-.199.118-.423.118-.672v-.88c-.025-.244-.076-.468-.155-.672s-.187-.378-.325-.522a1.365 1.365 0 0 0-.488-.336 1.63 1.63 0 0 0-.665-.127h-4.329c-.256 0-.451.067-.584.201s-.199.328-.199.582v7.976h-1.921v-7.976c0-.497.089-.92.266-1.268.182-.348.406-.629.672-.843.271-.214.564-.368.879-.463.315-.099.606-.149.872-.149h4.344c.433 0 .822.057 1.167.172.345.109.648.259.909.448.266.184.49.398.672.642.187.244.34.5.458.769.123.264.212.532.266.806.054.269.081.522.081.761v.88z"/></symbol></defs></svg>