<svg aria-hidden="true" style="position: absolute; width: 0; height: 0; overflow: hidden;" version="1.1" xmlns="http://www.w3.org/2000/svg" xmlns:xlink="http://www.w3.org/1999/xlink">
<defs>
<symbol id="icon-right-arrow" viewBox="0 0 32 32">
<path fill="#ff6b08" style="fill: var(--color1, #ff6b08)" d="M2 16c0 3.713 1.475 7.274 4.101 9.9s6.186 4.1 9.899 4.1c3.713 0 7.274-1.475 9.9-4.1s4.1-6.186 4.1-9.9c0-3.713-1.475-7.274-4.1-9.899s-6.186-4.101-9.9-4.101c-3.713 0-7.274 1.475-9.899 4.101s-4.101 6.186-4.101 9.899zM32 16c0 4.243-1.686 8.313-4.686 11.314s-7.070 4.686-11.314 4.686-8.313-1.686-11.314-4.686c-3.001-3.001-4.686-7.070-4.686-11.314s1.686-8.313 4.686-11.314c3.001-3.001 7.070-4.686 11.314-4.686s8.313 1.686 11.314 4.686c3.001 3.001 4.686 7.070 4.686 11.314zM9 15c-0.265 0-0.52 0.105-0.707 0.293s-0.293 0.442-0.293 0.707c0 0.265 0.105 0.52 0.293 0.707s0.442 0.293 0.707 0.293h11.586l-4.294 4.292c-0.093 0.093-0.167 0.203-0.217 0.325s-0.076 0.252-0.076 0.383 0.026 0.262 0.076 0.383c0.050 0.121 0.124 0.232 0.217 0.325s0.203 0.167 0.325 0.217c0.122 0.050 0.252 0.076 0.383 0.076s0.262-0.026 0.383-0.076c0.121-0.050 0.232-0.124 0.325-0.217l6-6c0.093-0.093 0.167-0.203 0.217-0.325s0.076-0.252 0.076-0.383-0.026-0.262-0.076-0.383c-0.050-0.121-0.124-0.232-0.217-0.325l-6-6c-0.093-0.093-0.203-0.167-0.325-0.217s-0.252-0.076-0.383-0.076-0.262 0.026-0.383 0.076c-0.121 0.050-0.232 0.124-0.325 0.217s-0.167 0.203-0.217 0.325c-0.050 0.122-0.076 0.252-0.076 0.383s0.026 0.262 0.076 0.383c0.050 0.121 0.124 0.232 0.217 0.325l4.294 4.292h-11.586z"></path>
</symbol>
<symbol id="icon-rsc" viewBox="0 0 32 32">
<path fill="none" stroke="#fff" style="stroke: var(--color2, #fff)" stroke-linejoin="miter" stroke-linecap="round" stroke-miterlimit="4" stroke-width="2.4615" d="M20.431 11.569l-8.862 8.861M20.431 20.431v0z"></path>
<path fill="none" stroke="#fff" style="stroke: var(--color2, #fff)" stroke-linejoin="miter" stroke-linecap="butt" stroke-miterlimit="4" stroke-width="2.4615" d="M16 30.769c8.157 0 14.769-6.612 14.769-14.769s-6.612-14.769-14.769-14.769c-8.157 0-14.769 6.612-14.769 14.769s6.612 14.769 14.769 14.769z"></path>
</symbol>
<symbol id="icon-button-up" viewBox="0 0 32 32">
<path fill="#ff6b08" style="fill: var(--color1, #ff6b08)" d="M16 0c-8.837 0-16 7.163-16 16s7.163 16 16 16c8.837 0 16-7.163 16-16s-7.163-16-16-16zM25.805 25.805c-2.431 2.424-5.678 3.856-9.108 4.017s-6.796-0.961-9.444-3.146-4.387-5.279-4.879-8.677c-0.492-3.398 0.299-6.857 2.219-9.704s4.83-4.877 8.164-5.694c3.334-0.818 6.854-0.365 9.873 1.27s5.321 4.336 6.457 7.576c1.136 3.24 1.026 6.787-0.31 9.949-0.696 1.648-1.706 3.145-2.973 4.408z"></path>
<path fill="#ff6b08" style="fill: var(--color1, #ff6b08)" d="M8.422 15.002l1.508 1.508 5.004-5.003v12.493h2.133v-12.493l5.004 5.003 1.509-1.508-7.579-7.579-7.579 7.579z"></path>
</symbol>
<symbol id="icon-facebook" viewBox="0 0 32 32">
<path fill="#fff" style="fill: var(--color2, #fff)" d="M13.912 11.099v2.203h-1.613v2.693h1.613v8.005h3.315v-8.005h2.224c0 0 0.21-1.291 0.31-2.704h-2.522v-1.84c0-0.277 0.362-0.646 0.72-0.646h1.805v-2.805h-2.456c-3.478 0-3.397 2.696-3.397 3.099z"></path>
<path fill="#fff" style="fill: var(--color2, #fff)" d="M6.4 3.2c-0.849 0-1.663 0.337-2.263 0.937s-0.937 1.414-0.937 2.263v19.2c0 0.849 0.337 1.663 0.937 2.263s1.414 0.937 2.263 0.937h19.2c0.849 0 1.663-0.337 2.263-0.937s0.937-1.414 0.937-2.263v-19.2c0-0.849-0.337-1.663-0.937-2.263s-1.414-0.937-2.263-0.937h-19.2zM6.4 0h19.2c1.697 0 3.325 0.674 4.526 1.875s1.874 2.828 1.874 4.525v19.2c0 1.697-0.674 3.325-1.874 4.526s-2.828 1.874-4.526 1.874h-19.2c-1.697 0-3.325-0.674-4.525-1.874s-1.875-2.828-1.875-4.526v-19.2c0-1.697 0.674-3.325 1.875-4.525s2.828-1.875 4.525-1.875z"></path>
</symbol>
<symbol id="icon-instagram" viewBox="0 0 32 32">
<path fill="#fff" style="fill: var(--color2, #fff)" d="M9.404 0.096c1.706-0.079 2.25-0.096 6.596-0.096s4.89 0.019 6.595 0.096c1.705 0.077 2.868 0.349 3.887 0.743 1.066 0.403 2.033 1.033 2.833 1.847 0.815 0.799 1.443 1.764 1.844 2.832 0.396 1.018 0.666 2.182 0.745 3.884 0.079 1.709 0.096 2.253 0.096 6.598 0 4.346-0.019 4.89-0.096 6.596-0.077 1.702-0.349 2.865-0.745 3.884-0.401 1.068-1.031 2.035-1.844 2.835-0.8 0.815-1.767 1.443-2.833 1.844-1.018 0.396-2.182 0.666-3.884 0.745-1.708 0.079-2.252 0.096-6.598 0.096s-4.89-0.019-6.596-0.096c-1.702-0.077-2.865-0.349-3.884-0.745-1.068-0.402-2.035-1.031-2.835-1.844-0.814-0.799-1.444-1.766-1.846-2.833-0.394-1.018-0.665-2.182-0.743-3.884-0.079-1.709-0.096-2.253-0.096-6.598 0-4.346 0.019-4.89 0.096-6.595s0.349-2.868 0.743-3.887c0.403-1.068 1.033-2.034 1.847-2.833 0.799-0.814 1.765-1.444 2.832-1.846 1.018-0.394 2.182-0.665 3.884-0.743h0.001zM22.465 2.976c-1.687-0.077-2.193-0.093-6.465-0.093s-4.778 0.016-6.465 0.093c-1.561 0.071-2.407 0.332-2.972 0.551-0.746 0.291-1.28 0.636-1.84 1.196-0.531 0.516-0.939 1.145-1.196 1.84-0.22 0.564-0.48 1.411-0.551 2.972-0.077 1.687-0.093 2.193-0.093 6.465s0.016 4.778 0.093 6.465c0.071 1.561 0.332 2.407 0.551 2.972 0.256 0.694 0.665 1.324 1.196 1.84 0.516 0.531 1.146 0.94 1.84 1.196 0.564 0.22 1.411 0.48 2.972 0.551 1.687 0.077 2.192 0.093 6.465 0.093s4.778-0.016 6.465-0.093c1.561-0.071 2.407-0.332 2.972-0.551 0.746-0.291 1.28-0.636 1.84-1.196 0.531-0.516 0.94-1.146 1.196-1.84 0.22-0.564 0.48-1.411 0.551-2.972 0.077-1.687 0.093-2.193 0.093-6.465s-0.016-4.778-0.093-6.465c-0.071-1.561-0.332-2.407-0.551-2.972-0.291-0.746-0.636-1.28-1.196-1.84-0.516-0.531-1.145-0.939-1.84-1.196-0.564-0.22-1.411-0.48-2.972-0.551zM13.956 20.932c1.141 0.475 2.412 0.539 3.596 0.181s2.206-1.115 2.893-2.143c0.687-1.028 0.996-2.262 0.873-3.493s-0.668-2.38-1.543-3.253c-0.558-0.558-1.233-0.985-1.976-1.251s-1.536-0.363-2.321-0.286-1.544 0.328-2.221 0.734c-0.677 0.406-1.255 0.957-1.694 1.613s-0.726 1.401-0.842 2.182c-0.116 0.781-0.057 1.577 0.172 2.332s0.622 1.45 1.152 2.035c0.53 0.585 1.183 1.045 1.912 1.347zM10.185 10.185c0.764-0.764 1.67-1.369 2.668-1.783s2.067-0.626 3.147-0.626 2.149 0.213 3.147 0.626c0.998 0.413 1.904 1.019 2.668 1.783s1.369 1.67 1.783 2.668c0.413 0.998 0.626 2.067 0.626 3.147s-0.213 2.149-0.626 3.147c-0.413 0.998-1.019 1.904-1.783 2.668-1.542 1.542-3.634 2.409-5.815 2.409s-4.273-0.866-5.815-2.409c-1.542-1.542-2.409-3.634-2.409-5.815s0.866-4.273 2.409-5.815zM26.048 9.001c0.189-0.178 0.341-0.393 0.446-0.631s0.161-0.495 0.165-0.755c0.004-0.26-0.045-0.518-0.142-0.759s-0.243-0.46-0.427-0.644c-0.184-0.184-0.403-0.329-0.644-0.427s-0.499-0.146-0.759-0.142c-0.26 0.004-0.517 0.060-0.755 0.165s-0.453 0.256-0.631 0.446c-0.347 0.368-0.537 0.857-0.53 1.363s0.212 0.989 0.569 1.347c0.358 0.358 0.841 0.562 1.347 0.569s0.995-0.183 1.363-0.53z"></path>
</symbol>
<symbol id="icon-twitter" viewBox="0 0 32 32">
<path fill="#fff" style="fill: var(--color2, #fff)" d="M24 11.116c-0.589 0.256-1.221 0.432-1.885 0.509 0.678-0.4 1.197-1.034 1.443-1.787-0.646 0.377-1.352 0.642-2.086 0.784-0.309-0.324-0.681-0.581-1.093-0.757s-0.855-0.265-1.303-0.264c-1.813 0-3.282 1.448-3.282 3.232 0 0.253 0.029 0.499 0.085 0.736-1.3-0.062-2.573-0.394-3.738-0.975s-2.196-1.399-3.027-2.401c-0.292 0.491-0.446 1.052-0.445 1.624 0 1.12 0.581 2.112 1.461 2.69-0.521-0.016-1.031-0.155-1.488-0.405v0.040c0.005 0.751 0.27 1.477 0.75 2.055s1.146 0.971 1.883 1.113c-0.484 0.128-0.991 0.147-1.483 0.054 0.215 0.646 0.625 1.21 1.174 1.612s1.21 0.623 1.891 0.633c-1.168 0.9-2.602 1.386-4.077 1.382-0.264 0-0.525-0.016-0.782-0.045 1.505 0.952 3.25 1.457 5.030 1.454 6.038 0 9.339-4.925 9.339-9.197l-0.011-0.419c0.644-0.452 1.2-1.018 1.642-1.669z"></path>
<path fill="#fff" style="fill: var(--color2, #fff)" d="M6.4 3.2c-0.849 0-1.663 0.337-2.263 0.937s-0.937 1.414-0.937 2.263v19.2c0 0.849 0.337 1.663 0.937 2.263s1.414 0.937 2.263 0.937h19.2c0.849 0 1.663-0.337 2.263-0.937s0.937-1.414 0.937-2.263v-19.2c0-0.849-0.337-1.663-0.937-2.263s-1.414-0.937-2.263-0.937h-19.2zM6.4 0h19.2c1.697 0 3.325 0.674 4.526 1.875s1.874 2.828 1.874 4.525v19.2c0 1.697-0.674 3.325-1.874 4.526s-2.828 1.874-4.526 1.874h-19.2c-1.697 0-3.325-0.674-4.525-1.874s-1.875-2.828-1.875-4.526v-19.2c0-1.697 0.674-3.325 1.875-4.525s2.828-1.875 4.525-1.875z"></path>
</symbol>
<symbol id="icon-rifr" viewBox="0 0 69 32">
<path fill="#6723ae" style="fill: var(--color3, #6723ae)" d="M0 0h31.884v32h-31.884v-32z"></path>
<path fill="#6723ae" style="fill: var(--color3, #6723ae)" d="M42.909 6.846v3.168c-0.176-0.383-0.436-0.686-0.777-0.904s-0.739-0.328-1.194-0.328c-0.43 0-0.813 0.102-1.152 0.3-0.339 0.201-0.604 0.48-0.794 0.835s-0.287 0.758-0.287 1.207c0 0.449 0.096 0.849 0.287 1.202s0.458 0.629 0.8 0.83c0.342 0.201 0.728 0.3 1.158 0.3 0.447 0 0.841-0.11 1.183-0.328s0.601-0.521 0.777-0.904v1.208h0.372v-6.586h-0.372zM42.661 12.142c-0.157 0.295-0.394 0.54-0.684 0.711-0.292 0.171-0.62 0.256-0.984 0.256-0.372 0-0.703-0.085-0.995-0.256-0.289-0.168-0.527-0.414-0.684-0.711-0.165-0.3-0.248-0.642-0.248-1.020s0.083-0.72 0.251-1.020 0.397-0.538 0.689-0.709c0.292-0.171 0.62-0.256 0.984-0.256s0.695 0.085 0.984 0.256c0.29 0.168 0.527 0.414 0.684 0.709 0.165 0.3 0.248 0.642 0.248 1.020s-0.080 0.72-0.245 1.020z"></path>
<path fill="#6723ae" style="fill: var(--color3, #6723ae)" d="M45.162 8.806h0.361v4.623h-0.361v-4.623z"></path>
<path fill="#6723ae" style="fill: var(--color3, #6723ae)" d="M45.346 7.154c0.083 0 0.154 0.030 0.215 0.094s0.094 0.138 0.094 0.226c0 0.094-0.030 0.174-0.094 0.234-0.061 0.063-0.135 0.094-0.218 0.094s-0.154-0.030-0.215-0.094c-0.061-0.063-0.094-0.141-0.094-0.234 0-0.088 0.030-0.165 0.094-0.226s0.135-0.094 0.218-0.094z"></path>
<path fill="#6723ae" style="fill: var(--color3, #6723ae)" d="M50.885 8.806v1.188c-0.165-0.372-0.411-0.664-0.742-0.88s-0.711-0.32-1.15-0.32c-0.408 0-0.769 0.097-1.092 0.289-0.32 0.193-0.573 0.458-0.755 0.794s-0.273 0.72-0.273 1.144c0 0.425 0.091 0.808 0.273 1.144s0.436 0.601 0.761 0.791 0.689 0.284 1.095 0.284c0.436 0 0.819-0.105 1.15-0.314s0.573-0.502 0.733-0.874v0.88c0 0.573-0.171 1.031-0.513 1.37s-0.797 0.51-1.37 0.51c-0.325 0-0.62-0.058-0.888-0.174s-0.527-0.287-0.772-0.51l-0.196 0.276c0.276 0.248 0.568 0.436 0.871 0.562s0.634 0.19 0.992 0.19c0.447 0 0.838-0.091 1.174-0.276s0.596-0.444 0.777-0.78 0.273-0.731 0.273-1.18v-4.116h-0.35zM50.648 12.004c-0.16 0.287-0.378 0.513-0.659 0.675s-0.593 0.245-0.94 0.245c-0.353 0-0.67-0.080-0.946-0.243s-0.494-0.389-0.651-0.675c-0.157-0.287-0.234-0.612-0.234-0.973s0.077-0.686 0.234-0.976c0.149-0.284 0.375-0.518 0.653-0.678 0.278-0.163 0.593-0.243 0.94-0.243s0.662 0.083 0.94 0.243c0.278 0.16 0.505 0.397 0.659 0.678 0.16 0.289 0.24 0.615 0.24 0.976s-0.080 0.684-0.237 0.97z"></path>
<path fill="#6723ae" style="fill: var(--color3, #6723ae)" d="M52.953 8.806h0.361v4.623h-0.361v-4.623z"></path>
<path fill="#6723ae" style="fill: var(--color3, #6723ae)" d="M53.138 7.154c0.083 0 0.154 0.030 0.218 0.094 0.061 0.063 0.094 0.138 0.094 0.226 0 0.094-0.030 0.174-0.094 0.234-0.061 0.063-0.135 0.094-0.215 0.094s-0.154-0.030-0.218-0.094c-0.063-0.063-0.094-0.141-0.094-0.234 0-0.088 0.030-0.165 0.094-0.226 0.061-0.061 0.132-0.094 0.215-0.094z"></path>
<path fill="#6723ae" style="fill: var(--color3, #6723ae)" d="M57.325 13.109c-0.325 0.218-0.651 0.328-0.981 0.328s-0.584-0.107-0.761-0.323c-0.176-0.215-0.265-0.538-0.265-0.962v-2.911h-0.67v-0.32h0.67v-1.144h0.353v1.144h1.563v0.32h-1.563v2.867c0 0.645 0.24 0.968 0.717 0.968 0.27 0 0.535-0.088 0.794-0.267l0.143 0.3z"></path>
<path fill="#6723ae" style="fill: var(--color3, #6723ae)" d="M61.75 10.358c-0.005-0.485-0.154-0.866-0.447-1.144s-0.706-0.416-1.241-0.416c-0.331 0-0.634 0.055-0.91 0.165s-0.565 0.273-0.866 0.494l0.176 0.284c0.259-0.196 0.513-0.345 0.761-0.449s0.51-0.154 0.786-0.154c0.455 0 0.794 0.11 1.026 0.328 0.229 0.218 0.347 0.527 0.353 0.924v0.452h-1.635c-0.529 0-0.948 0.11-1.254 0.334-0.306 0.22-0.46 0.524-0.46 0.91 0 0.259 0.063 0.494 0.19 0.698s0.303 0.367 0.535 0.482c0.229 0.119 0.493 0.176 0.794 0.176 0.405 0 0.766-0.074 1.081-0.226s0.568-0.383 0.755-0.698l0.008 0.915h0.361l-0.014-3.074zM61.397 11.921c-0.135 0.397-0.356 0.692-0.662 0.888s-0.681 0.292-1.122 0.292c-0.369 0-0.667-0.094-0.888-0.284s-0.331-0.438-0.331-0.744c0-0.295 0.119-0.521 0.358-0.675s0.584-0.232 1.039-0.232h1.607v0.755h-0.003z"></path>
<path fill="#6723ae" style="fill: var(--color3, #6723ae)" d="M63.501 6.846h0.372v6.584h-0.372v-6.584z"></path>
<path fill="#6723ae" style="fill: var(--color3, #6723ae)" d="M42.504 20.354c-0.006-0.485-0.154-0.866-0.447-1.144s-0.706-0.416-1.241-0.416c-0.331 0-0.634 0.055-0.91 0.165s-0.565 0.273-0.866 0.494l0.176 0.284c0.259-0.196 0.513-0.345 0.761-0.449s0.51-0.154 0.786-0.154c0.455 0 0.794 0.11 1.026 0.328 0.229 0.218 0.347 0.527 0.353 0.924v0.452h-1.635c-0.529 0-0.948 0.11-1.254 0.334-0.306 0.221-0.46 0.524-0.46 0.91 0 0.259 0.063 0.494 0.19 0.698s0.306 0.364 0.535 0.482c0.229 0.119 0.494 0.176 0.794 0.176 0.405 0 0.766-0.074 1.083-0.226 0.314-0.152 0.568-0.383 0.755-0.698l0.008 0.915h0.361l-0.017-3.074zM42.148 21.918c-0.135 0.397-0.356 0.692-0.662 0.888s-0.681 0.292-1.122 0.292c-0.372 0-0.667-0.094-0.888-0.284s-0.331-0.438-0.331-0.744c0-0.295 0.119-0.521 0.358-0.675s0.584-0.232 1.039-0.232h1.607v0.755h-0.003z"></path>
<path fill="#6723ae" style="fill: var(--color3, #6723ae)" d="M47.723 18.803v1.188c-0.165-0.372-0.411-0.664-0.742-0.88-0.331-0.212-0.714-0.32-1.15-0.32-0.405 0-0.769 0.096-1.092 0.289-0.32 0.193-0.573 0.458-0.755 0.794s-0.273 0.72-0.273 1.144c0 0.425 0.091 0.808 0.273 1.144s0.436 0.601 0.761 0.791c0.323 0.19 0.689 0.284 1.094 0.284 0.436 0 0.819-0.105 1.15-0.314s0.573-0.502 0.733-0.874v0.88c0 0.573-0.171 1.031-0.513 1.37s-0.797 0.51-1.37 0.51c-0.325 0-0.62-0.058-0.888-0.174s-0.527-0.287-0.772-0.51l-0.196 0.276c0.276 0.248 0.568 0.436 0.871 0.562s0.634 0.19 0.992 0.19c0.447 0 0.838-0.091 1.174-0.276s0.596-0.444 0.777-0.78c0.182-0.336 0.273-0.731 0.273-1.18v-4.116h-0.35zM47.486 22.001c-0.154 0.281-0.38 0.516-0.659 0.675-0.281 0.163-0.593 0.243-0.94 0.243-0.353 0-0.667-0.083-0.946-0.243-0.276-0.163-0.493-0.389-0.651-0.675s-0.234-0.612-0.234-0.97c0-0.361 0.077-0.686 0.234-0.976 0.149-0.284 0.378-0.518 0.653-0.678 0.278-0.163 0.593-0.243 0.94-0.243s0.662 0.083 0.94 0.243c0.278 0.16 0.505 0.397 0.659 0.678 0.16 0.289 0.24 0.615 0.24 0.976s-0.080 0.684-0.237 0.97z"></path>
<path fill="#6723ae" style="fill: var(--color3, #6723ae)" d="M53.435 19.955c-0.168-0.367-0.416-0.653-0.742-0.857-0.328-0.204-0.711-0.306-1.152-0.306-0.43 0-0.813 0.099-1.152 0.298s-0.604 0.474-0.8 0.83c-0.196 0.356-0.292 0.755-0.292 1.199s0.096 0.841 0.287 1.194c0.19 0.353 0.458 0.626 0.8 0.824s0.728 0.298 1.158 0.298c0.358 0 0.692-0.063 0.998-0.19 0.298-0.121 0.568-0.309 0.786-0.546l-0.212-0.24c-0.187 0.207-0.416 0.364-0.684 0.474s-0.557 0.165-0.871 0.165c-0.353 0-0.67-0.077-0.954-0.234s-0.507-0.378-0.67-0.662c-0.165-0.284-0.256-0.612-0.273-0.984h4.017c0.005-0.474-0.077-0.896-0.243-1.263zM49.667 20.887c0.047-0.527 0.243-0.951 0.582-1.274 0.342-0.323 0.772-0.482 1.29-0.482s0.94 0.16 1.263 0.48c0.323 0.32 0.505 0.744 0.538 1.276h-3.672z"></path>
<path fill="#6723ae" style="fill: var(--color3, #6723ae)" d="M57.246 18.794c0.56 0 0.998 0.16 1.312 0.482s0.471 0.764 0.471 1.326v2.82h-0.372v-2.752c0-0.474-0.132-0.844-0.397-1.108-0.265-0.267-0.634-0.4-1.106-0.4-0.524 0.011-0.943 0.174-1.26 0.482-0.314 0.311-0.494 0.736-0.535 1.274v2.503h-0.372v-4.621h0.372v1.18c0.154-0.378 0.392-0.667 0.711-0.868 0.325-0.201 0.717-0.309 1.174-0.32z"></path>
<path fill="#6723ae" style="fill: var(--color3, #6723ae)" d="M63.906 19.707c-0.4-0.372-0.874-0.56-1.423-0.56-0.364 0-0.692 0.083-0.981 0.248s-0.513 0.397-0.675 0.697c-0.163 0.298-0.243 0.637-0.243 1.017 0 0.383 0.080 0.728 0.243 1.028s0.386 0.535 0.675 0.7c0.289 0.165 0.615 0.248 0.981 0.248 0.306 0 0.59-0.058 0.849-0.168 0.251-0.108 0.477-0.27 0.653-0.48l0.22 0.24c-0.204 0.243-0.463 0.433-0.755 0.56-0.298 0.13-0.623 0.196-0.976 0.196-0.43 0-0.816-0.099-1.158-0.298s-0.609-0.474-0.805-0.824c-0.196-0.35-0.292-0.75-0.292-1.194s0.096-0.844 0.292-1.199c0.196-0.356 0.463-0.631 0.805-0.83s0.728-0.298 1.158-0.298c0.331 0 0.634 0.055 0.915 0.168s0.524 0.273 0.728 0.48l-0.212 0.267z"></path>
<path fill="#6723ae" style="fill: var(--color3, #6723ae)" d="M66.788 24.090c-0.141 0.342-0.32 0.607-0.54 0.788-0.218 0.185-0.463 0.276-0.733 0.276-0.347 0-0.64-0.088-0.874-0.267l0.16-0.32c0.207 0.143 0.438 0.212 0.698 0.212 0.207 0 0.394-0.072 0.565-0.212 0.171-0.143 0.312-0.35 0.425-0.62l0.212-0.524-1.9-4.621h0.389l1.695 4.188 1.651-4.188h0.389l-2.137 5.288z"></path>
<path fill="#fff" style="fill: var(--color2, #fff)" d="M8.764 16.313c0.532-0.121 0.951-0.353 1.26-0.698s0.463-0.791 0.463-1.34c0-0.397-0.077-0.736-0.234-1.015s-0.364-0.502-0.623-0.673c-0.259-0.171-0.554-0.292-0.888-0.367s-0.675-0.113-1.031-0.113h-2.614v6.859c0.403-0.141 0.844-0.226 1.34-0.232v-2.274h0.979l1.665 3.057c0.623 0.143 1.147 0.13 1.629 0.036l-1.946-3.242zM8.106 15.32c-0.19 0.028-0.383 0.041-0.573 0.041h-1.095v-2.123h1.213c0.176 0 0.353 0.014 0.527 0.041 0.168 0.025 0.334 0.080 0.482 0.16 0.141 0.077 0.259 0.185 0.35 0.314 0.091 0.132 0.138 0.3 0.138 0.507 0 0.229-0.050 0.414-0.149 0.56s-0.226 0.256-0.378 0.336c-0.152 0.083-0.325 0.135-0.515 0.163z"></path>
<path fill="#fff" style="fill: var(--color2, #fff)" d="M11.827 12.111h1.34v6.664c-0.463 0.061-0.915 0.193-1.34 0.392v-7.055z"></path>
<path fill="#fff" style="fill: var(--color2, #fff)" d="M14.868 12.111h4.858v1.174h-3.518v2.070h3.317v1.13h-3.317v3.019c-0.16-0.044-0.345-0.096-0.673-0.248-0.21-0.096-0.441-0.201-0.667-0.284v-6.862z"></path>
<path fill="#fff" style="fill: var(--color2, #fff)" d="M25.929 15.616c0.309-0.345 0.463-0.791 0.463-1.34 0-0.397-0.077-0.736-0.234-1.015s-0.364-0.502-0.623-0.673c-0.259-0.171-0.554-0.292-0.888-0.367s-0.675-0.113-1.031-0.113h-2.614v6.636c0.447 0.022 0.893 0.141 1.34 0.334v-2.616h0.979l1.693 3.113c0.411-0.077 0.866-0.237 1.332-0.466l-1.676-2.796c0.532-0.121 0.951-0.353 1.26-0.698zM24.010 15.32c-0.19 0.028-0.383 0.041-0.573 0.041h-1.094v-2.123h1.213c0.176 0 0.353 0.014 0.527 0.041 0.168 0.025 0.334 0.080 0.482 0.16 0.141 0.077 0.259 0.185 0.35 0.314 0.091 0.132 0.138 0.3 0.138 0.507 0 0.229-0.050 0.414-0.149 0.56s-0.226 0.256-0.378 0.336c-0.152 0.080-0.325 0.135-0.516 0.163z"></path>
</symbol>
<symbol id="icon-msd" viewBox="0 0 79 32">
<path fill="#6723ae" style="fill: var(--color3, #6723ae)" d="M13.275 30.268c-3.256-0.729-5.411-3.137-5.859-6.546l-0.065-0.497h14.586l-0.062 0.669c-0.090 0.966-0.56 2.285-1.119 3.14-1.009 1.544-2.776 2.793-4.453 3.149-0.67 0.142-2.54 0.195-3.027 0.086h-0z"></path>
<path fill="#6723ae" style="fill: var(--color3, #6723ae)" d="M57.582 23.542c-1.255-0.141-2.265-0.536-3.086-1.207-0.815-0.666-1.412-2.047-1.412-3.265v-0.553h2.887l0.116 0.678c0.148 0.863 0.446 1.342 1.060 1.702 0.424 0.249 0.597 0.286 1.325 0.282 1.701-0.008 2.867-0.98 2.609-2.175-0.178-0.82-0.849-1.256-2.664-1.727-1.412-0.366-2.153-0.676-3.012-1.259-0.808-0.549-1.43-1.28-1.703-2.001-0.314-0.83-0.253-2.12 0.139-2.962 0.547-1.174 1.956-2.21 3.532-2.597 0.896-0.22 2.639-0.164 3.4 0.109 1.734 0.621 2.842 1.976 3.048 3.726l0.067 0.573h-1.42c-1.555 0-1.425 0.056-1.589-0.68-0.185-0.829-0.811-1.339-1.803-1.471-1.98-0.263-3.3 1.702-1.989 2.961 0.394 0.379 0.686 0.5 2.587 1.079 2.516 0.766 3.564 1.408 4.168 2.552 0.257 0.486 0.278 0.625 0.278 1.785 0 1.207-0.014 1.285-0.34 1.948-0.75 1.524-2.357 2.391-4.682 2.527-0.46 0.027-1.143 0.014-1.517-0.028zM42.059 18.198c-1.196-2.788-2.218-5.114-2.271-5.168-0.059-0.061-0.097 1.879-0.097 4.998v5.098l-3.086-0.058-0.027-7.241-0.027-7.241 2.312-0.030c1.451-0.019 2.343 0.009 2.397 0.075 0.047 0.058 0.731 1.719 1.521 3.693s1.455 3.568 1.479 3.544c0.024-0.024 0.692-1.662 1.484-3.64l1.44-3.596 4.749-0.056v14.546h-3.139v-5.074c0-2.791-0.035-5.072-0.078-5.070s-0.966 2.086-2.052 4.629c-1.085 2.544-2.076 4.858-2.202 5.143l-0.228 0.518-2.174-5.069z"></path>
<path fill="#6723ae" style="fill: var(--color3, #6723ae)" d="M6.422 23.019c-1.669-0.221-2.987-0.868-4.133-2.031-1.668-1.692-2.29-3.37-2.137-5.767 0.111-1.755 0.704-3.101 1.924-4.37 1.286-1.338 2.743-2.059 4.489-2.223l0.799-0.075v0.519c0 1.226 0.671 2.93 1.626 4.129 0.898 1.128 2.52 2.132 4.001 2.475l0.807 0.187-0.519 0.081c-1.51 0.235-3.415 1.394-4.391 2.671-0.934 1.222-1.389 2.328-1.507 3.666-0.078 0.877-0.051 0.857-0.959 0.737zM22.009 22.728c-0.004-0.758-0.312-1.867-0.788-2.831-0.574-1.163-1.477-2.177-2.594-2.915-0.832-0.549-2.2-1.073-2.841-1.088-0.391-0.009-0.376-0.019 0.22-0.149 0.767-0.167 2.071-0.677 2.623-1.027 1.72-1.089 3.022-3.165 3.31-5.273l0.118-0.868h0.431c1.199 0 2.943 0.727 4.167 1.736 2.062 1.701 3.023 4.636 2.364 7.215-0.765 2.993-3.039 5.022-6.139 5.48-0.414 0.061-0.779 0.111-0.811 0.111s-0.059-0.177-0.060-0.392z"></path>
<path fill="#6723ae" style="fill: var(--color3, #6723ae)" d="M65.533 15.797v-7.346l3.008 0.051c3.518 0.060 4.108 0.164 5.769 1.017 1.26 0.647 2.067 1.419 2.753 2.634 1.14 2.019 1.215 4.885 0.184 7.044-0.615 1.288-1.99 2.588-3.357 3.174-0.257 0.11-0.865 0.307-1.352 0.437-0.795 0.212-1.193 0.241-3.945 0.286l-3.060 0.049v-7.346z"></path>
<path fill="#fff" style="fill: var(--color2, #fff)" d="M71.545 20.24c0.893-0.233 1.581-0.645 2.162-1.297 0.726-0.815 0.954-1.469 1.009-2.899 0.055-1.4-0.109-2.084-0.708-2.966-0.881-1.297-2.232-1.879-4.369-1.883l-0.968-0.002v9.207h1.129c0.677 0 1.376-0.064 1.745-0.16z"></path>
<path fill="#6723ae" style="fill: var(--color3, #6723ae)" d="M7.514 7.828c0.192-1.703 1.126-3.333 2.622-4.579 0.62-0.516 1.972-1.193 2.83-1.416 0.696-0.181 2.262-0.21 3.069-0.057 2.043 0.388 4.108 1.928 5.023 3.748 0.472 0.939 0.848 2.089 0.848 2.595v0.355h-14.465l0.073-0.645z"></path>
</symbol>
<symbol id="icon-usetree" viewBox="0 0 25 32">
<path fill="#6723ae" style="fill: var(--color3, #6723ae)" d="M4.965 30.737c0 0.821-0.41 1.263-1.126 1.263s-1.126-0.443-1.126-1.263v-1.714h0.418v1.658c0 0.563 0.177 0.949 0.708 0.949s0.708-0.386 0.708-0.949v-1.658h0.418v1.714zM7.524 29.466c-0.209-0.080-0.33-0.121-0.547-0.121-0.233 0-0.507 0.080-0.507 0.386 0 0.563 1.247 0.434 1.247 1.392 0 0.62-0.475 0.869-1.062 0.869-0.201 0-0.402-0.056-0.595-0.121l0.040-0.386c0.145 0.056 0.386 0.145 0.603 0.145 0.233 0 0.571-0.137 0.571-0.475 0-0.652-1.247-0.475-1.247-1.384 0-0.515 0.41-0.797 0.933-0.797 0.193 0 0.418 0.032 0.62 0.105l-0.056 0.386zM8.803 29.031h1.625v0.37h-1.207v0.853h1.102v0.37h-1.102v0.966h1.207v0.37h-1.625v-2.929zM12.158 29.393h-0.901v-0.37h2.213v0.37h-0.901v2.559h-0.418l0.008-2.559zM14.363 29.031h0.708c0.571 0 1.126 0.088 1.126 0.788 0 0.354-0.257 0.604-0.595 0.668v0.008c0.129 0.048 0.193 0.113 0.282 0.29l0.547 1.167h-0.475l-0.443-1.014c-0.129-0.282-0.266-0.282-0.483-0.282h-0.249v1.296h-0.418v-2.921zM14.781 30.286h0.354c0.394 0 0.628-0.177 0.628-0.459 0-0.266-0.201-0.435-0.579-0.435h-0.402v0.893zM17.445 29.031h1.625v0.37h-1.207v0.853h1.102v0.37h-1.102v0.966h1.207v0.37h-1.625v-2.929zM20.253 29.031h1.625v0.37h-1.207v0.853h1.102v0.37h-1.102v0.966h1.207v0.37h-1.625v-2.929z"></path>
<path fill="#6723ae" style="fill: var(--color3, #6723ae)" d="M15.795 10.348v-3.774c0-0.024 0.016-0.048 0.032-0.064l1.859-1.239c0.024-0.016 0.032-0.040 0.032-0.064v-1.304c0-0.032 0.024-0.064 0.056-0.072 0.29-0.105 0.491-0.41 0.41-0.756-0.056-0.233-0.241-0.418-0.475-0.475-0.418-0.097-0.797 0.217-0.797 0.628 0 0.282 0.177 0.515 0.426 0.603 0.032 0.008 0.056 0.040 0.056 0.072v1.118c0 0.024-0.016 0.048-0.032 0.064l-1.859 1.239c-0.024 0.016-0.032 0.040-0.032 0.064v3.774c0 0.024-0.016 0.048-0.032 0.064l-2.414 1.609c-0.056 0.032-0.129 0-0.129-0.064v-1.995c0-0.024 0.016-0.048 0.032-0.064l0.893-0.595c0.024-0.016 0.032-0.040 0.032-0.064v-2.583c0-0.032 0.024-0.064 0.056-0.072 0.29-0.105 0.491-0.41 0.41-0.756-0.056-0.233-0.241-0.418-0.475-0.475-0.418-0.097-0.797 0.217-0.797 0.628 0 0.282 0.177 0.515 0.426 0.603 0.032 0.008 0.056 0.040 0.056 0.072v2.406c0 0.024-0.016 0.048-0.032 0.064l-0.724 0.483c-0.024 0.016-0.064 0.016-0.088 0l-0.724-0.483c-0.024-0.016-0.032-0.040-0.032-0.064v-7.555c0-0.032 0.024-0.064 0.056-0.072 0.29-0.105 0.491-0.41 0.41-0.756-0.056-0.233-0.241-0.418-0.475-0.475-0.418-0.097-0.797 0.217-0.797 0.628 0 0.282 0.177 0.515 0.426 0.603 0.032 0.008 0.056 0.040 0.056 0.072v7.732c0 0.024 0.016 0.048 0.032 0.064l0.893 0.595c0.024 0.016 0.032 0.040 0.032 0.064v2.317c0 0.024-0.016 0.048-0.032 0.064l-0.724 0.483c-0.024 0.016-0.064 0.016-0.088 0l-0.724-0.483c-0.024-0.016-0.032-0.040-0.032-0.064v-2.486c0-0.024-0.016-0.048-0.032-0.064l-0.893-0.595c-0.024-0.016-0.032-0.040-0.032-0.064v-3.693c0-0.032 0.024-0.064 0.056-0.072 0.29-0.105 0.491-0.41 0.41-0.756-0.056-0.233-0.241-0.418-0.475-0.475-0.418-0.097-0.797 0.217-0.797 0.628 0 0.282 0.177 0.515 0.426 0.603 0.032 0.008 0.056 0.040 0.056 0.072v3.87c0 0.024 0.016 0.048 0.032 0.064l0.893 0.595c0.024 0.016 0.032 0.040 0.032 0.064v1.995c0 0.064-0.072 0.105-0.129 0.064l-2.414-1.609c-0.024-0.016-0.032-0.040-0.032-0.064v-3.774c0-0.024-0.016-0.048-0.032-0.064l-1.859-1.239c-0.024-0.016-0.032-0.040-0.032-0.064v-1.118c0-0.032 0.024-0.064 0.056-0.072 0.29-0.105 0.491-0.41 0.41-0.756-0.056-0.233-0.241-0.418-0.475-0.475-0.418-0.097-0.797 0.217-0.797 0.628 0 0.282 0.177 0.515 0.426 0.603 0.032 0.008 0.056 0.040 0.056 0.072v1.295c0 0.024 0.016 0.048 0.032 0.064l1.859 1.239c0.024 0.016 0.032 0.040 0.032 0.064v3.774c0 0.024 0.016 0.048 0.032 0.064l3.79 2.527c0.024 0.016 0.032 0.040 0.032 0.064v12.271h0.322v-12.262c0-0.024 0.016-0.048 0.032-0.064l3.79-2.527c0.032-0.016 0.048-0.040 0.048-0.072zM17.243 3.227c0-0.177 0.145-0.322 0.322-0.322s0.322 0.145 0.322 0.322c0 0.177-0.145 0.322-0.322 0.322s-0.322-0.145-0.322-0.322zM13.381 5.801c0-0.177 0.145-0.322 0.322-0.322s0.322 0.145 0.322 0.322c0 0.177-0.145 0.322-0.322 0.322s-0.322-0.145-0.322-0.322zM11.45 0.652c0-0.177 0.145-0.322 0.322-0.322s0.322 0.145 0.322 0.322c0 0.177-0.145 0.322-0.322 0.322s-0.322-0.145-0.322-0.322zM9.519 4.514c0-0.177 0.145-0.322 0.322-0.322s0.322 0.145 0.322 0.322c0 0.177-0.145 0.322-0.322 0.322s-0.322-0.145-0.322-0.322zM5.657 3.227c0-0.177 0.145-0.322 0.322-0.322s0.322 0.145 0.322 0.322c0 0.177-0.145 0.322-0.322 0.322s-0.322-0.145-0.322-0.322z"></path>
<path fill="#6723ae" style="fill: var(--color3, #6723ae)" d="M18.604 12.383l1.022-0.684c0.024-0.016 0.032-0.040 0.032-0.064v-1.199c0-0.024 0.016-0.048 0.032-0.064l1.859-1.239c0.024-0.016 0.032-0.040 0.032-0.064v-1.296c0-0.032 0.024-0.064 0.056-0.072 0.29-0.105 0.491-0.41 0.41-0.756-0.056-0.233-0.241-0.418-0.475-0.475-0.418-0.097-0.797 0.217-0.797 0.628 0 0.282 0.177 0.515 0.426 0.603 0.032 0.008 0.056 0.040 0.056 0.072v1.118c0 0.024-0.016 0.048-0.032 0.064l-1.448 0.966c-0.056 0.032-0.129 0-0.129-0.064v-4.659c0-0.032 0.024-0.064 0.056-0.072 0.29-0.105 0.491-0.41 0.41-0.756-0.056-0.233-0.241-0.418-0.475-0.475-0.418-0.097-0.797 0.217-0.797 0.628 0 0.282 0.177 0.515 0.426 0.603 0.032 0.008 0.056 0.040 0.056 0.072v6.268c0 0.024-0.016 0.048-0.032 0.064l-0.797 0.531c-0.016 0.008-0.032 0.016-0.048 0.016h-0.652c-0.048 0-0.080-0.032-0.080-0.080v-1.658c0-0.032 0.024-0.064 0.056-0.072 0.29-0.105 0.491-0.41 0.41-0.756-0.056-0.233-0.241-0.418-0.475-0.475-0.418-0.097-0.797 0.217-0.797 0.628 0 0.282 0.177 0.515 0.426 0.603 0.032 0.008 0.056 0.040 0.056 0.072v1.658c0 0.048-0.032 0.080-0.080 0.080h-2.679c-0.016 0-0.032 0.008-0.048 0.016l-1.987 1.328c-0.024 0.016-0.032 0.040-0.032 0.064v11.788h0.322v-11.619c0-0.024 0.016-0.048 0.032-0.064l1.762-1.175c0.016-0.008 0.032-0.016 0.048-0.016h3.822c0.016 0 0.032-0.008 0.048-0.016zM21.106 7.089c0-0.177 0.145-0.322 0.322-0.322s0.322 0.145 0.322 0.322c0 0.177-0.145 0.322-0.322 0.322s-0.322-0.145-0.322-0.322zM19.175 4.514c0-0.177 0.145-0.322 0.322-0.322s0.322 0.145 0.322 0.322c0 0.177-0.145 0.322-0.322 0.322s-0.322-0.145-0.322-0.322zM17.244 9.664c0-0.177 0.145-0.322 0.322-0.322s0.322 0.145 0.322 0.322c0 0.177-0.145 0.322-0.322 0.322s-0.322-0.145-0.322-0.322z"></path>
<path fill="#6723ae" style="fill: var(--color3, #6723ae)" d="M13.864 24.951v-9.366c0-0.024 0.016-0.048 0.032-0.064l1.762-1.175c0.016-0.008 0.032-0.016 0.048-0.016h3.814c0.016 0 0.032-0.008 0.048-0.016l1.891-1.263c0.016-0.008 0.032-0.016 0.048-0.016h0.209c0.032 0 0.064 0.024 0.072 0.056 0.088 0.249 0.322 0.426 0.604 0.426 0.402 0 0.724-0.378 0.628-0.796-0.056-0.233-0.241-0.418-0.475-0.475-0.346-0.080-0.652 0.113-0.756 0.41-0.008 0.032-0.040 0.056-0.072 0.056h-0.314c-0.016 0-0.032 0.008-0.048 0.016l-1.891 1.263c-0.016 0.008-0.032 0.016-0.048 0.016h-3.814c-0.016 0-0.032 0.008-0.048 0.016l-1.987 1.328c-0.024 0.016-0.032 0.040-0.032 0.064v9.857h10.943v-0.322h-10.613zM22.393 12.56c0.177 0 0.322 0.145 0.322 0.322s-0.145 0.322-0.322 0.322c-0.177 0-0.322-0.145-0.322-0.322s0.145-0.322 0.322-0.322zM10.935 13.413l-1.022-0.684c-0.016-0.008-0.032-0.016-0.048-0.016h-1.883c-0.016 0-0.032-0.008-0.048-0.016l-1.762-1.175c-0.024-0.016-0.032-0.040-0.032-0.064v-1.118c0-0.032 0.024-0.064 0.056-0.072 0.29-0.105 0.491-0.41 0.41-0.756-0.056-0.233-0.241-0.418-0.475-0.475-0.418-0.097-0.797 0.217-0.797 0.628 0 0.282 0.177 0.515 0.426 0.603 0.032 0.008 0.056 0.040 0.056 0.072v1.296c0 0.024 0.016 0.048 0.032 0.064l1.987 1.328c0.016 0.008 0.032 0.016 0.048 0.016h1.883c0.016 0 0.032 0.008 0.048 0.016l0.797 0.531c0.024 0.016 0.032 0.040 0.032 0.064v1.995c0 0.064-0.072 0.105-0.129 0.064l-2.543-1.698c-0.016-0.008-0.032-0.016-0.048-0.016h-1.883c-0.016 0-0.032-0.008-0.048-0.016l-1.802-1.199v-5.029c0-0.032 0.024-0.064 0.056-0.072 0.29-0.105 0.491-0.41 0.41-0.756-0.056-0.233-0.241-0.418-0.475-0.475-0.418-0.097-0.797 0.217-0.797 0.628 0 0.282 0.177 0.515 0.426 0.603 0.032 0.008 0.056 0.040 0.056 0.072v2.084c0 0.064-0.072 0.105-0.129 0.064l-1.448-0.966c-0.024-0.016-0.032-0.040-0.032-0.064v-2.406c0-0.032 0.024-0.064 0.056-0.072 0.29-0.105 0.491-0.41 0.41-0.756-0.056-0.233-0.241-0.418-0.475-0.475-0.402-0.088-0.78 0.233-0.78 0.636 0 0.282 0.177 0.515 0.426 0.603 0.032 0.008 0.056 0.040 0.056 0.072v2.583c0 0.024 0.016 0.048 0.032 0.064l1.859 1.239c0.024 0.016 0.032 0.040 0.032 0.064v2.213c0 0.048-0.032 0.081-0.080 0.081h-1.963c-0.032 0-0.064-0.024-0.072-0.056-0.105-0.29-0.41-0.491-0.756-0.41-0.233 0.056-0.418 0.241-0.475 0.475-0.097 0.418 0.217 0.797 0.628 0.797 0.282 0 0.515-0.177 0.603-0.426 0.008-0.032 0.040-0.056 0.072-0.056h2.14c0.016 0 0.032 0.008 0.048 0.016l1.891 1.263c0.016 0.008 0.032 0.016 0.048 0.016h1.883c0.016 0 0.032 0.008 0.048 0.016l2.728 1.818c0.024 0.016 0.032 0.040 0.032 0.064v8.714h-10.621v0.322h10.943v-11.788c-0.008-0.032-0.024-0.056-0.040-0.072zM5.657 9.664c0-0.177 0.145-0.322 0.322-0.322s0.322 0.145 0.322 0.322c0 0.177-0.145 0.322-0.322 0.322s-0.322-0.145-0.322-0.322zM1.795 5.801c0-0.177 0.145-0.322 0.322-0.322s0.322 0.145 0.322 0.322c0 0.177-0.145 0.322-0.322 0.322s-0.322-0.145-0.322-0.322zM1.151 13.204c-0.177 0-0.322-0.145-0.322-0.322s0.145-0.322 0.322-0.322c0.177 0 0.322 0.145 0.322 0.322s-0.145 0.322-0.322 0.322zM3.726 7.089c0-0.177 0.145-0.322 0.322-0.322s0.322 0.145 0.322 0.322c0 0.177-0.145 0.322-0.322 0.322s-0.322-0.145-0.322-0.322z"></path>
</symbol>
<symbol id="icon-paradox" viewBox="0 0 31 32">
<path fill="#6723ae" style="fill: var(--color3, #6723ae)" d="M0.331 30.627h0.363v1.336h-0.363v-1.336zM3.533 30.627h0.352v1.336h-0.395l-0.728-0.931h-0.004v0.931h-0.352v-1.336h0.421l0.701 0.931h0.004v-0.931zM5.965 30.881h-0.496v-0.254h1.354v0.254h-0.496v1.081h-0.363v-1.081h-0zM8.408 30.627h1.248v0.254h-0.885v0.277h0.84v0.243h-0.84v0.307h0.892v0.254h-1.255v-1.336zM11.322 30.627h0.971c0.37 0 0.432 0.227 0.432 0.363 0 0.163-0.065 0.267-0.217 0.322v0.004c0.159 0.024 0.183 0.226 0.183 0.357 0 0.065 0.006 0.222 0.069 0.29h-0.397c-0.034-0.062-0.036-0.116-0.036-0.256 0-0.187-0.080-0.234-0.193-0.234h-0.451v0.49h-0.363v-1.336zM11.685 31.218h0.481c0.080 0 0.174-0.045 0.174-0.17 0-0.133-0.105-0.166-0.193-0.166h-0.462v0.337zM15.335 31.688h-0.613l-0.109 0.275h-0.391l0.587-1.336h0.438l0.588 1.336h-0.391l-0.109-0.275zM15.028 30.915l-0.21 0.529h0.419l-0.21-0.529zM18.522 31.132c-0.034-0.193-0.193-0.289-0.382-0.289-0.344 0-0.417 0.27-0.417 0.451s0.073 0.451 0.417 0.451c0.176 0 0.346-0.084 0.382-0.296h0.395c-0.045 0.389-0.365 0.55-0.789 0.55-0.487 0-0.789-0.21-0.789-0.705s0.303-0.705 0.789-0.705c0.322 0 0.731 0.082 0.786 0.543l-0.391 0zM20.916 30.881h-0.495v-0.254h1.354v0.254h-0.496v1.081h-0.363v-1.081h0zM23.359 30.627h0.363v1.336h-0.363v-1.336zM25.267 30.627h0.399l0.387 1.018 0.387-1.018h0.398l-0.593 1.336h-0.385l-0.593-1.336zM28.383 30.627h1.248v0.254h-0.885v0.277h0.84v0.243h-0.84v0.307h0.892v0.254h-1.255v-1.336zM0.302 26.529h1.219v0.328h0.010c0.227-0.262 0.574-0.403 1.133-0.403 0.816 0 1.566 0.448 1.566 1.47s-0.75 1.471-1.566 1.471c-0.514 0-0.876-0.126-1.093-0.388h-0.010v1.264h-1.259v-3.742zM2.256 28.548c0.453 0 0.685-0.272 0.685-0.625 0-0.362-0.201-0.624-0.69-0.624-0.483 0-0.69 0.231-0.69 0.624-0 0.388 0.206 0.625 0.695 0.625zM4.774 27.365c0.076-0.378 0.232-0.61 0.544-0.755 0.307-0.141 0.766-0.191 1.43-0.191 1.284 0 1.793 0.287 1.793 1.108v1.33c0 0.212 0.055 0.338 0.116 0.428h-1.289c-0.025-0.081-0.040-0.171-0.045-0.272-0.282 0.262-0.71 0.383-1.38 0.383-0.846 0-1.38-0.227-1.38-0.932 0-0.504 0.358-0.826 1.289-0.866l1.063-0.050c0.252-0.015 0.337-0.076 0.337-0.227 0-0.181-0.227-0.267-0.584-0.267-0.287 0-0.574 0.045-0.635 0.312h-1.259zM7.282 28.030c-0.212 0.045-0.569 0.076-1.017 0.116-0.232 0.020-0.343 0.096-0.343 0.272 0 0.192 0.156 0.312 0.468 0.312 0.423 0 0.891-0.106 0.891-0.579v-0.121zM9.206 26.529h1.219v0.529h0.010c0.327-0.428 0.74-0.604 1.173-0.604 0.136 0 0.277 0.010 0.413 0.030v1.128c-0.222-0.055-0.408-0.101-0.629-0.101-0.448 0-0.927 0.146-0.927 0.741v1.032h-1.259v-2.755zM12.469 27.365c0.076-0.378 0.232-0.61 0.544-0.755 0.307-0.141 0.765-0.191 1.43-0.191 1.284 0 1.793 0.287 1.793 1.108v1.33c0 0.212 0.055 0.338 0.116 0.428h-1.289c-0.025-0.081-0.041-0.171-0.046-0.272-0.282 0.262-0.71 0.383-1.38 0.383-0.846 0-1.38-0.227-1.38-0.932 0-0.504 0.358-0.826 1.289-0.866l1.063-0.050c0.252-0.015 0.337-0.076 0.337-0.227 0-0.181-0.226-0.267-0.584-0.267-0.287 0-0.574 0.045-0.635 0.312h-1.259zM14.977 28.030c-0.211 0.045-0.569 0.076-1.017 0.116-0.232 0.020-0.343 0.096-0.343 0.272 0 0.192 0.156 0.312 0.468 0.312 0.423 0 0.892-0.106 0.892-0.579v-0.121zM19.459 28.992h-0.010c-0.227 0.262-0.574 0.403-1.133 0.403-0.816 0-1.566-0.448-1.566-1.471s0.75-1.47 1.566-1.47c0.514 0 0.876 0.126 1.093 0.388h0.010v-1.279h1.259v3.722h-1.219v-0.292zM18.724 27.3c-0.453 0-0.685 0.272-0.685 0.624 0 0.363 0.202 0.625 0.69 0.625 0.484 0 0.69-0.232 0.69-0.625-0-0.388-0.206-0.624-0.695-0.624zM23.241 26.418c1.421 0 2.040 0.474 2.040 1.486 0 1.017-0.619 1.491-2.040 1.491s-2.039-0.474-2.039-1.491c0-1.012 0.619-1.486 2.039-1.486zM23.241 28.579c0.509 0 0.72-0.232 0.72-0.675 0-0.433-0.211-0.67-0.72-0.67-0.504 0-0.72 0.236-0.72 0.67 0 0.443 0.216 0.675 0.72 0.675zM25.452 29.284l1.269-1.441-1.163-1.314h1.541l0.499 0.741 0.499-0.741h1.541l-1.183 1.314 1.289 1.441h-1.602l-0.544-0.781-0.544 0.781h-1.601zM26.155 12.916c-0.149-0.729 0.61-1.361 0.251-2.107-0.356-0.735-2.091-0.699-2.117-1.545-0.036-0.988 1.402-0.484 2.004-0.465 0-1.583-0.623-2.934-2.326-1.866-0.286 0-0.675-0.058-0.811-0.312-0.51-0.936 1.048-1.136 1.090-1.892 0.024-0.438-0.511-0.715-0.677-1.071-0.114-0.237-0.013-0.54-0.013-0.792 0-0.106-0.123-0.11-0.206-0.131-0.322-0.083-0.62 0.102-0.951 0.031-0.366-0.079-0.568-0.414-0.894-0.566 0 0.135-0.233 0.311-0.31 0.421-0.24 0.333-1.104 1.512-1.629 1-0.206-0.2-0.172-0.555-0.131-0.826 0.303-2.042-0.443-2.264-2.237-2.549-0.435-0.073-1.546-0.335-2.054-0.18 0 0.35 0.443 2.795-0.342 2.667-0.934 0-0.424-2.427-1.778-2.734-0.223 0.082-0.518 0.116-0.662 0.329-0.192 0.28 0.19 1.134 0.274 1.464 0.102 0.417 0.081 0.976-0.091 1.34v0.067c-1.532 0-1.375-3.396-3.76-1.733 0 0.908 2.163 2.058 1.421 3.056-0.127 0.166-0.338 0.307-0.548 0.335-1.161 0.139-1.62-2.365-2.917-2.143-0.212 0.036-0.4 0.202-0.491 0.383-0.306 0.591 1.13 1.454 1.338 2.042 0.114 0.321 0.014 0.616-0.035 0.926-1.092 0-2.377-1.567-3.394-0.573-0.161 0.154-0.335 0.368-0.272 0.608 0.104 0.415 0.844 0.345 1.069 0.735 0.009 0.017 0.016 0.032 0.024 0.049 0.385 0.875-0.501 1.521-0.513 2.314-0.009 0.395 0.299 0.619 0.172 1.053-0.435 1.481-1.842-0.171-2.511 0.463-0.603 0.568 0.083 1.748 0.128 2.417 0.028 0.437-0.21 0.766-0.237 1.194-0.027 0.389 0.253 0.681 0.349 1.025 0.129 0.473-0.007 0.997 0.255 1.406 0.756 1.17 2.045-2.011 2.617-0.67 0.463 1.085-1.882 1.026-1.939 1.848-0.060 0.818 1.366 1.554 1.907 2.082 0.476 0.464 0.853 1.057 0.916 1.724 0.061 0.665-0.25 1.34-0.42 1.924 0.241 0 0.417 0.104 0.671 0.031 1.189-0.352 1.888-2.253 1.692-3.427-0.167-0.989-0.708-1.838-0.774-2.872-0.066-1.019 0.927-2.728-0.024-3.456-0.042-0.025-0.085-0.051-0.128-0.075 0 0.106-0.227 0.142-0.343 0.145-0.208 0.007-0.374-0.074-0.515-0.184-0.205-0.161-0.325-0.409-0.161-0.647 0.229-0.336 0.878-0.27 0.955-0.724 0.165-1.002-1.934-1.199-0.664-2.434 0.235-0.231 0.564-0.412 0.929-0.383 0.589 0.046 2.008 0.466 1.928 1.221-0.038 0.342-0.326 0.663-0.202 1.046 0.127 0.397 0.71 0.352 0.864 0.727 0.208 0.509-0.216 0.885-0.175 1.358 0.010 0.119 0.062 0.162 0.152 0.234 0.179 0.139 0.524 0.187 0.628 0.419 0.265 0.589-0.448 1.305 0.503 1.623 0-0.419-0.095-0.983 0.273-1.2 0 0.101 0.204 0.24 0.265 0.338 0.3 0.467 0.424 0.908 1.034 1.062 0.022-0.886-0.479-1.644-0.479-1.668 0.438 0 0.706 0.578 1.202 0.446 0.454-0.123 0.052-0.627-0.054-0.839-0.301-0.605 0.131-1.096-0.052-1.654-0.194-0.591-1.776-1.010-2.262-1.486-0.163-0.157-0.336-0.417-0.255-0.665 0.298-0.927 1.392-0.374 2.155-0.593 0.357-0.105 0.628-0.352 0.883-0.632 0.35-0.389 0.596-1.025 0.376-1.555-0.13-0.315-0.359-0.553-0.303-0.949 0.23-1.667 2.928-1.574 4.103-0.969 0.601 0.308 1.17 1.014 0.853 1.735-0.282 0.632-1.044 0.264-1.582 0.499-0.474 0.205-1.095 1.161-1.253 1.612-0.239 0.678 0.43 1.19 0.475 1.849 0.091 1.441-0.586 2.764-0.873 4.064-0.054 0.238 0.157 0.56 0.030 0.779-0.207 0.351-0.639 0.221-0.984 0.349-0.268 0.1-0.39 0.309-0.624 0.457-0.503 0.31-1.084 0.461-1.15 1.15 0.318 0 0.551-0.171 0.888-0.201 0.048-0.004 0.067 0.026 0.069 0.066-0.001 0.024-0.007 0.044-0.008 0.066-0.079 0.599-0.551 1.107-0.264 1.734 0.424 0 0.524-0.99 1.231-0.732 0.083 0 0.073 0.005 0.094 0.077 0.144 0.461 0.203 0.856 0.452 1.257 0.068 0 0.287-0.062 0.28-0.239-0.019-0.425-0.085-1.066 0.059-1.429 0.207-0.538 0.579-0.469 0.483-1.198 0.109 0 0.238-0.188 0.357-0.228 0.864-0.302 1.007-0.803 2.104-0.767 0.264 0.007 0.532 0.020 0.754 0.129 0.193 0 0.12-0.298 0.052-0.53-0.384-1.274-0.871-2.535-0.871-4.003h0.205c0 0.164 0.65 1.047 0.775 1.252 0.163 0.26 0.691 1.472 1.159 1.207 0.218-0.128 0.349-1.65 0.476-1.986 0.463-1.248 1.773-1.522 2.542-0.315 0.729 1.141 0.279 3.55-0.654 4.433-0.367 0.341-0.885 0.343-1.236 0.663-0.367 0.334-0.038 0.963-0.099 1.404-0.057 0.407-0.328 0.791-0.628 1.085-0.67 0.651-1.558 0.945-2.242 1.552-0.291 0.256-0.354 0.68-0.709 0.837-0.349 0.151-0.778-0.042-1.142 0.064-0.265 0.167-0.532 0.333-0.8 0.5-0.492 0.256-1.285 0.689-1.547 0.768 0 1.046 2.5 0.489 3.015 0.211 0.365-0.197 0.474-0.677 0.836-0.833 0.385-0.169 0.722 0.225 1.138 0.082 0.385-0.139 0.746-0.449 1.086-0.676 0.655-0.445 1.362-0.82 1.972-1.343 0.207-0.182 0.533-0.43 0.622-0.676 0.159-0.442-0.541-1.53 0.698-1.351 0.96 0.128 1.916-1.802 2.1-2.487 0.108-0.527 0.212-1.060 0.318-1.589 0.134-0.318 0.264-0.636 0.398-0.957 0.193-0.786-0.508-0.76-0.623-1.33zM4.405 14.937c-0.769 0.162-1.308-0.721-0.961-1.342 0.145-0.264 0.369-0.383 0.619-0.529 0.303 0.027 0.565 0.055 0.786 0.238 0.642 0.533 0.329 1.468-0.445 1.633zM9.536 9.333c-0.070 0.034-0.202-0.029-0.278-0.062-0.977-0.414-0.573-1.045-0.2-1.738 0.75 0.298 0.916 1.586 0.478 1.8zM10.903 12.199c0.903 0.441 1.215 1.207 1.184 1.595-0.010 0.125-0.086 0.231-0.086 0.231s-0.232 0.082-0.488-0.020c-0.725-0.291-0.611-1.066-0.611-1.806zM18.097 15.391c-0.038 0.312-0.153 0.45-0.355 0.675-0.35 0-0.674-0.169-0.779-0.481-0.096-0.282-0.008-0.636 0.016-0.92 0.079-1.009 0.155-2.157 0.49-3.065 0.335 0.743 0.218 1.614 0.382 2.457 0.084 0.428 0.302 0.849 0.246 1.335zM23.008 11c-0.46 0-0.907 0.054-1.361-0.036-1.712-0.339-0.236-2.26 0.13-3.031 0.697 0.634 1.471 2.063 1.231 3.067zM30.16 26.496c0.23 0 0.417 0.186 0.417 0.417s-0.186 0.416-0.417 0.416c-0.23 0-0.416-0.186-0.416-0.416s0.186-0.417 0.416-0.417zM30.474 26.913c0-0.181-0.14-0.327-0.314-0.327s-0.314 0.146-0.314 0.327c0 0.181 0.14 0.327 0.314 0.327s0.314-0.146 0.314-0.327zM30.134 26.949h-0.069v0.197h-0.081v-0.466h0.182c0.116 0 0.175 0.040 0.175 0.134 0 0.085-0.054 0.12-0.12 0.132l0.128 0.2h-0.094l-0.119-0.197zM30.148 26.88c0.059 0 0.112-0.006 0.112-0.072 0-0.055-0.058-0.064-0.105-0.064h-0.092v0.136h0.085z"></path>
</symbol>
<symbol id="icon-mi" viewBox="0 0 41 32">
<path fill="#6723ae" style="fill: var(--color3, #6723ae)" d="M15.113 8.729l-15.113-8.725v17.451l5.038 2.908v-11.634l10.076 5.817 10.075-5.817v5.817l-10.075 5.817v5.817l10.076 5.817v-5.817l-5.038-2.909 10.076-5.817v-17.451l-15.113 8.725zM40.302 23.271l-15.113 8.725v-5.817l10.076-5.817v-5.817l5.038-2.909v11.634zM35.264 2.912v5.817l5.038-2.909v-5.817l-5.038 2.908z"></path>
</symbol>
<symbol id="icon-arrow-forward" viewBox="0 0 16 32">
<path fill="#a08db5" style="fill: var(--color4, #a08db5)" d="M2.674 32c0.341 0.001 0.679-0.074 0.987-0.221s0.58-0.36 0.795-0.625l11.040-13.714c0.336-0.409 0.52-0.922 0.52-1.451s-0.184-1.042-0.52-1.451l-11.429-13.714c-0.388-0.467-0.946-0.76-1.55-0.816s-1.206 0.131-1.673 0.519c-0.467 0.388-0.76 0.946-0.816 1.55s0.131 1.206 0.519 1.673l10.217 12.251-9.874 12.251c-0.28 0.336-0.457 0.744-0.512 1.177s0.016 0.873 0.204 1.267 0.484 0.727 0.855 0.958c0.371 0.231 0.8 0.351 1.236 0.346z"></path>
</symbol>
<symbol id="icon-ellipse-1" viewBox="0 0 32 32">
<path fill="#6723ae" style="fill: var(--color3, #6723ae)" d="M32 16c0 8.837-7.163 16-16 16s-16-7.163-16-16c0-8.837 7.163-16 16-16s16 7.163 16 16z"></path>
</symbol>
<symbol id="icon-ellipse-2" viewBox="0 0 32 32">
<path fill="#a08db5" style="fill: var(--color4, #a08db5)" d="M32 16c0 8.837-7.163 16-16 16s-16-7.163-16-16c0-8.837 7.163-16 16-16s16 7.163 16 16z"></path>
</symbol>
<symbol id="icon-arrow-back" viewBox="0 0 16 32">
<path fill="#a08db5" style="fill: var(--color4, #a08db5)" d="M13.326 32c-0.341 0.001-0.679-0.074-0.987-0.221s-0.58-0.36-0.795-0.625l-11.040-13.714c-0.336-0.409-0.52-0.922-0.52-1.451s0.184-1.042 0.52-1.451l11.429-13.714c0.388-0.467 0.946-0.76 1.55-0.816s1.206 0.131 1.673 0.519c0.467 0.388 0.76 0.946 0.816 1.55s-0.131 1.206-0.519 1.673l-10.217 12.251 9.874 12.251c0.28 0.336 0.457 0.744 0.512 1.177s-0.016 0.873-0.204 1.267-0.484 0.727-0.855 0.958c-0.371 0.231-0.8 0.351-1.236 0.346z"></path>
</symbol>
<symbol id="icon-left-arrow" viewBox="0 0 32 32">
<path fill="#ff6b08" style="fill: var(--color1, #ff6b08)" d="M30 16c0 3.713-1.475 7.274-4.1 9.9s-6.186 4.1-9.9 4.1c-3.713 0-7.274-1.475-9.899-4.1s-4.101-6.186-4.101-9.9c0-3.713 1.475-7.274 4.101-9.899s6.186-4.101 9.899-4.101c3.713 0 7.274 1.475 9.9 4.101s4.1 6.186 4.1 9.899zM0 16c0 4.243 1.686 8.313 4.686 11.314s7.070 4.686 11.314 4.686 8.313-1.686 11.314-4.686c3.001-3.001 4.686-7.070 4.686-11.314s-1.686-8.313-4.686-11.314c-3.001-3.001-7.070-4.686-11.314-4.686s-8.313 1.686-11.314 4.686c-3.001 3.001-4.686 7.070-4.686 11.314zM23 15c0.265 0 0.52 0.105 0.707 0.293s0.293 0.442 0.293 0.707c0 0.265-0.105 0.52-0.293 0.707s-0.442 0.293-0.707 0.293h-11.586l4.294 4.292c0.093 0.093 0.167 0.203 0.217 0.325s0.076 0.252 0.076 0.383-0.026 0.262-0.076 0.383c-0.050 0.121-0.124 0.232-0.217 0.325s-0.203 0.167-0.325 0.217c-0.122 0.050-0.252 0.076-0.383 0.076s-0.262-0.026-0.383-0.076c-0.121-0.050-0.232-0.124-0.325-0.217l-6-6c-0.093-0.093-0.167-0.203-0.217-0.325s-0.076-0.252-0.076-0.383 0.026-0.262 0.076-0.383c0.050-0.121 0.124-0.232 0.217-0.325l6-6c0.093-0.093 0.203-0.167 0.325-0.217s0.252-0.076 0.383-0.076 0.262 0.026 0.383 0.076c0.121 0.050 0.232 0.124 0.325 0.217s0.167 0.203 0.217 0.325c0.050 0.122 0.076 0.252 0.076 0.383s-0.026 0.262-0.076 0.383c-0.050 0.121-0.124 0.232-0.217 0.325l-4.294 4.292h11.586z"></path>
</symbol>
<symbol id="icon-linkedIn" viewBox="0 0 32 32">
<path d="M24 17.808v5.915h-3.429v-5.52c0-1.386-0.496-2.331-1.738-2.331-0.947 0-1.512 0.637-1.76 1.254-0.090 0.221-0.114 0.528-0.114 0.835v5.762h-3.43c0 0 0.046-9.347 0-10.315h3.43v1.461l-0.022 0.034h0.022v-0.032c0.456-0.704 1.269-1.706 3.091-1.706 2.256 0 3.949 1.475 3.949 4.643zM9.941 8.434c-1.173 0-1.941 0.771-1.941 1.782 0 0.992 0.746 1.784 1.896 1.784h0.022c1.197 0 1.941-0.794 1.941-1.784-0.022-1.011-0.744-1.782-1.918-1.782zM8.203 23.723h3.43v-10.315h-3.43v10.315z"></path>
<path fill="#fff" style="fill: var(--color2, #fff)" d="M6.4 3.2c-0.849 0-1.663 0.337-2.263 0.937s-0.937 1.414-0.937 2.263v19.2c0 0.849 0.337 1.663 0.937 2.263s1.414 0.937 2.263 0.937h19.2c0.849 0 1.663-0.337 2.263-0.937s0.937-1.414 0.937-2.263v-19.2c0-0.849-0.337-1.663-0.937-2.263s-1.414-0.937-2.263-0.937h-19.2zM6.4-0h19.2c1.697 0 3.325 0.674 4.525 1.875s1.875 2.828 1.875 4.525v19.2c0 1.697-0.674 3.325-1.875 4.526s-2.828 1.874-4.525 1.874h-19.2c-1.697 0-3.325-0.674-4.525-1.874s-1.875-2.828-1.875-4.526v-19.2c0-1.697 0.674-3.325 1.875-4.525s2.828-1.875 4.525-1.875z"></path>
</symbol>
<symbol id="icon-play" viewBox="0 0 32 32">
<path d="M16 30c-3.713 0-7.274-1.475-9.899-4.101s-4.101-6.186-4.101-9.899c0-3.713 1.475-7.274 4.101-9.899s6.186-4.101 9.899-4.101c3.713 0 7.274 1.475 9.899 4.101s4.101 6.186 4.101 9.899c0 3.713-1.475 7.274-4.101 9.899s-6.186 4.101-9.899 4.101zM16 32c4.244 0 8.313-1.686 11.314-4.686s4.686-7.070 4.686-11.314-1.686-8.313-4.686-11.314c-3.001-3.001-7.070-4.686-11.314-4.686s-8.313 1.686-11.314 4.686c-3.001 3.001-4.686 7.070-4.686 11.314s1.686 8.313 4.686 11.314c3.001 3.001 7.070 4.686 11.314 4.686z"></path>
<path d="M12.542 10.11c0.164-0.084 0.347-0.122 0.531-0.108s0.36 0.077 0.509 0.184l7 5c0.13 0.092 0.235 0.215 0.308 0.356s0.111 0.298 0.111 0.458-0.038 0.316-0.111 0.458c-0.073 0.142-0.179 0.264-0.308 0.356l-7 5c-0.15 0.107-0.326 0.171-0.509 0.184s-0.367-0.024-0.53-0.108-0.301-0.212-0.396-0.369c-0.096-0.157-0.146-0.337-0.146-0.521v-10c-0-0.184 0.050-0.364 0.146-0.521s0.233-0.285 0.396-0.369z"></path>
</symbol>
<symbol id="icon-menu" viewBox="0 0 40 32">
<path d="M0 2.286c0-0.606 0.234-1.188 0.651-1.616s0.982-0.669 1.571-0.669h35.556c0.589 0 1.155 0.241 1.571 0.669s0.651 1.010 0.651 1.616-0.234 1.188-0.651 1.616c-0.417 0.429-0.982 0.669-1.571 0.669h-35.556c-0.589 0-1.155-0.241-1.571-0.669s-0.651-1.010-0.651-1.616zM0 16c0-0.606 0.234-1.188 0.651-1.616s0.982-0.669 1.571-0.669h35.556c0.589 0 1.155 0.241 1.571 0.669s0.651 1.010 0.651 1.616-0.234 1.188-0.651 1.616c-0.417 0.429-0.982 0.669-1.571 0.669h-35.556c-0.589 0-1.155-0.241-1.571-0.669s-0.651-1.010-0.651-1.616zM0 29.714c0-0.606 0.234-1.188 0.651-1.616s0.982-0.669 1.571-0.669h35.556c0.589 0 1.155 0.241 1.571 0.669s0.651 1.010 0.651 1.616c0 0.606-0.234 1.188-0.651 1.616s-0.982 0.669-1.571 0.669h-35.556c-0.589 0-1.155-0.241-1.571-0.669s-0.651-1.010-0.651-1.616z"></path>
</symbol>
<symbol id="icon-logo" viewBox="0 0 77 32">
<path fill="#fff" style="fill: var(--color2, #fff)" d="M10.585 6.999c0 0.652-0.113 1.251-0.34 1.798-0.222 0.547-0.529 1.020-0.923 1.418-0.394 0.393-0.862 0.701-1.403 0.925s-1.13 0.336-1.765 0.336h-5.186c-0.138 0-0.266-0.025-0.384-0.075s-0.222-0.117-0.31-0.201c-0.084-0.089-0.15-0.194-0.199-0.313s-0.074-0.249-0.074-0.388v-8.745c0-0.134 0.025-0.261 0.074-0.381s0.116-0.224 0.199-0.313c0.089-0.090 0.192-0.159 0.31-0.209s0.246-0.075 0.384-0.075h5.186c0.635 0 1.224 0.112 1.765 0.336s1.010 0.535 1.403 0.933c0.394 0.393 0.702 0.866 0.923 1.418 0.227 0.547 0.34 1.144 0.34 1.791v1.746zM8.665 5.253c0-0.378-0.062-0.724-0.185-1.037-0.118-0.313-0.288-0.579-0.51-0.798-0.222-0.224-0.488-0.395-0.798-0.515-0.305-0.124-0.645-0.187-1.019-0.187h-4.233v6.82h4.233c0.374 0 0.714-0.060 1.019-0.179 0.31-0.124 0.576-0.296 0.798-0.515 0.222-0.224 0.392-0.49 0.51-0.798 0.123-0.313 0.185-0.662 0.185-1.045v-1.746z"></path>
<path fill="#fff" style="fill: var(--color2, #fff)" d="M23.115 6.081c0 0.269-0.047 0.56-0.14 0.873-0.093 0.308-0.246 0.597-0.458 0.866-0.207 0.264-0.48 0.485-0.82 0.664-0.335 0.179-0.744 0.269-1.226 0.269h-3.464v-1.843h3.464c0.261 0 0.463-0.080 0.606-0.239 0.143-0.164 0.214-0.366 0.214-0.604 0-0.254-0.081-0.453-0.244-0.597-0.158-0.144-0.35-0.216-0.576-0.216h-3.464c-0.261 0-0.463 0.082-0.606 0.246-0.143 0.159-0.214 0.358-0.214 0.597v2.709c0 0.259 0.079 0.46 0.236 0.604 0.163 0.144 0.362 0.216 0.598 0.216h3.45v1.851h-3.464c-0.266 0-0.554-0.047-0.864-0.142-0.305-0.095-0.591-0.246-0.857-0.455-0.261-0.214-0.48-0.49-0.657-0.828-0.177-0.343-0.266-0.759-0.266-1.246v-2.723c0-0.269 0.047-0.557 0.14-0.866 0.094-0.313 0.244-0.602 0.451-0.866 0.212-0.269 0.485-0.492 0.82-0.672 0.34-0.179 0.751-0.269 1.234-0.269h3.464c0.266 0 0.552 0.047 0.857 0.142 0.31 0.095 0.596 0.249 0.857 0.463 0.266 0.209 0.488 0.485 0.665 0.828 0.177 0.338 0.266 0.751 0.266 1.239z"></path>
<path fill="#fff" style="fill: var(--color2, #fff)" d="M34.396 8.752c0 0.333-0.042 0.634-0.126 0.903-0.084 0.264-0.195 0.497-0.332 0.701-0.138 0.199-0.298 0.371-0.48 0.515-0.182 0.139-0.374 0.254-0.576 0.343-0.197 0.089-0.399 0.157-0.606 0.201-0.202 0.040-0.394 0.060-0.576 0.060h-5.2v-1.94h5.186c0.261 0 0.458-0.067 0.591-0.201s0.199-0.328 0.199-0.582c-0.025-0.517-0.283-0.776-0.776-0.776h-2.977c-0.424 0-0.783-0.075-1.079-0.224s-0.537-0.336-0.724-0.56c-0.182-0.224-0.315-0.465-0.399-0.724-0.079-0.259-0.118-0.5-0.118-0.724 0-0.433 0.076-0.796 0.229-1.089 0.153-0.298 0.345-0.54 0.576-0.724s0.483-0.316 0.753-0.395c0.271-0.085 0.524-0.127 0.761-0.127h4.72v1.94h-4.705c-0.099 0-0.177 0.012-0.236 0.037-0.054 0.020-0.096 0.050-0.126 0.090-0.025 0.035-0.039 0.075-0.044 0.119-0.005 0.040-0.007 0.080-0.007 0.119 0.005 0.080 0.020 0.142 0.044 0.187s0.054 0.077 0.089 0.097c0.039 0.020 0.081 0.032 0.126 0.037 0.049 0 0.096 0 0.14 0h2.977c0.492 0 0.911 0.090 1.256 0.269s0.623 0.405 0.835 0.679c0.212 0.269 0.364 0.562 0.458 0.88 0.099 0.318 0.148 0.614 0.148 0.888z"></path>
<path fill="#fff" style="fill: var(--color2, #fff)" d="M39.967 1.753h-1.921v-1.753h1.921v1.753zM39.967 11.476h-1.921v-8.066h1.921v8.066z"></path>
<path fill="#fff" style="fill: var(--color2, #fff)" d="M52.77 12.252c0 0.333-0.042 0.632-0.126 0.895-0.084 0.269-0.195 0.502-0.332 0.701-0.138 0.204-0.298 0.376-0.48 0.515-0.182 0.144-0.374 0.261-0.576 0.351-0.197 0.089-0.399 0.154-0.606 0.194-0.202 0.045-0.394 0.067-0.576 0.067h-3.464v-1.94h3.464c0.261 0 0.456-0.067 0.584-0.201s0.192-0.328 0.192-0.582v-6.126c0-0.254-0.064-0.445-0.192-0.575-0.128-0.134-0.323-0.201-0.584-0.201h-3.464c-0.236 0-0.423 0.075-0.561 0.224-0.138 0.144-0.207 0.328-0.207 0.552v2.626c0 0.254 0.066 0.448 0.199 0.582s0.327 0.201 0.584 0.201h3.45v1.94h-3.464c-0.182 0-0.374-0.020-0.576-0.060-0.202-0.045-0.404-0.112-0.606-0.201-0.197-0.089-0.387-0.204-0.569-0.343-0.182-0.144-0.342-0.316-0.48-0.515-0.138-0.204-0.249-0.438-0.332-0.701-0.084-0.269-0.126-0.569-0.126-0.903v-2.626c0-0.184 0.020-0.378 0.059-0.582 0.044-0.204 0.111-0.405 0.199-0.604 0.089-0.204 0.202-0.398 0.34-0.582 0.143-0.184 0.313-0.346 0.51-0.485 0.202-0.139 0.433-0.251 0.694-0.336s0.556-0.127 0.886-0.127h3.464c0.182 0 0.374 0.022 0.576 0.067 0.207 0.040 0.409 0.104 0.606 0.194 0.202 0.090 0.394 0.206 0.576 0.351 0.182 0.139 0.342 0.311 0.48 0.515 0.138 0.199 0.249 0.43 0.332 0.694s0.126 0.562 0.126 0.895v6.126z"></path>
<path fill="#fff" style="fill: var(--color2, #fff)" d="M65.647 11.476h-1.921v-4.477c0-0.254-0.044-0.48-0.133-0.679-0.084-0.204-0.199-0.378-0.347-0.522s-0.323-0.254-0.525-0.328c-0.197-0.080-0.411-0.119-0.643-0.119h-3.361v6.126h-1.921v-7.103c0-0.134 0.025-0.259 0.074-0.373 0.049-0.119 0.118-0.221 0.207-0.306 0.089-0.090 0.192-0.159 0.31-0.209s0.244-0.075 0.377-0.075h4.329c0.241 0 0.495 0.027 0.761 0.082 0.271 0.055 0.537 0.144 0.798 0.269 0.266 0.119 0.517 0.274 0.753 0.463 0.241 0.184 0.453 0.41 0.635 0.679 0.187 0.264 0.335 0.57 0.443 0.918s0.162 0.741 0.162 1.179v4.477z"></path>
<path fill="#fff" style="fill: var(--color2, #fff)" d="M12.343 31.851h-1.935v-6.372l-3.405 6.051c-0.084 0.154-0.202 0.271-0.355 0.351-0.148 0.080-0.308 0.119-0.48 0.119-0.167 0-0.325-0.040-0.473-0.119-0.143-0.080-0.256-0.197-0.34-0.351l-3.42-6.051v6.372h-1.921v-9.872c0-0.224 0.064-0.423 0.192-0.597 0.133-0.174 0.305-0.291 0.517-0.351 0.103-0.025 0.207-0.032 0.31-0.022 0.103 0.005 0.202 0.027 0.295 0.067 0.099 0.035 0.187 0.087 0.266 0.157 0.079 0.065 0.145 0.144 0.199 0.239l4.373 7.678 4.373-7.678c0.113-0.189 0.268-0.323 0.465-0.403 0.202-0.080 0.411-0.092 0.628-0.037 0.207 0.060 0.377 0.177 0.51 0.351s0.199 0.373 0.199 0.597v9.872z"></path>
<path fill="#fff" style="fill: var(--color2, #fff)" d="M25.169 26.456c0 0.269-0.047 0.56-0.14 0.873-0.094 0.308-0.246 0.597-0.458 0.866-0.207 0.264-0.48 0.485-0.82 0.664-0.335 0.179-0.744 0.269-1.226 0.269h-3.464v-1.843h3.464c0.261 0 0.463-0.080 0.606-0.239 0.143-0.164 0.214-0.366 0.214-0.604 0-0.254-0.081-0.453-0.244-0.597-0.158-0.144-0.35-0.216-0.576-0.216h-3.464c-0.261 0-0.463 0.082-0.606 0.246-0.143 0.159-0.214 0.358-0.214 0.597v2.709c0 0.259 0.079 0.46 0.236 0.604 0.163 0.144 0.362 0.216 0.598 0.216h3.45v1.85h-3.464c-0.266 0-0.554-0.047-0.864-0.142-0.305-0.095-0.591-0.246-0.857-0.455-0.261-0.214-0.48-0.49-0.657-0.828-0.177-0.343-0.266-0.759-0.266-1.246v-2.723c0-0.269 0.047-0.557 0.14-0.866 0.094-0.313 0.244-0.602 0.451-0.866 0.212-0.269 0.485-0.492 0.82-0.671 0.34-0.179 0.751-0.269 1.234-0.269h3.464c0.266 0 0.552 0.047 0.857 0.142 0.31 0.095 0.596 0.249 0.857 0.463 0.266 0.209 0.488 0.485 0.665 0.828 0.177 0.338 0.266 0.751 0.266 1.239z"></path>
<path fill="#fff" style="fill: var(--color2, #fff)" d="M37.322 26.456c0 0.269-0.047 0.56-0.14 0.873-0.094 0.308-0.246 0.597-0.458 0.866-0.207 0.264-0.48 0.485-0.82 0.664-0.335 0.179-0.744 0.269-1.226 0.269h-3.464v-1.843h3.464c0.261 0 0.463-0.080 0.606-0.239 0.143-0.164 0.214-0.366 0.214-0.604 0-0.254-0.081-0.453-0.244-0.597-0.158-0.144-0.35-0.216-0.576-0.216h-3.464c-0.261 0-0.463 0.082-0.606 0.246-0.143 0.159-0.214 0.358-0.214 0.597v2.709c0 0.259 0.079 0.46 0.236 0.604 0.163 0.144 0.362 0.216 0.598 0.216h3.45v1.85h-3.464c-0.266 0-0.554-0.047-0.864-0.142-0.305-0.095-0.591-0.246-0.857-0.455-0.261-0.214-0.48-0.49-0.657-0.828-0.177-0.343-0.266-0.759-0.266-1.246v-2.723c0-0.269 0.047-0.557 0.14-0.866 0.093-0.313 0.244-0.602 0.451-0.866 0.212-0.269 0.485-0.492 0.82-0.671 0.34-0.179 0.751-0.269 1.234-0.269h3.464c0.266 0 0.552 0.047 0.857 0.142 0.31 0.095 0.596 0.249 0.857 0.463 0.266 0.209 0.488 0.485 0.665 0.828 0.177 0.338 0.266 0.751 0.266 1.239z"></path>
<path fill="#fff" style="fill: var(--color2, #fff)" d="M48.145 25.725h-3.354v6.126h-1.943v-6.126h-2.497v-1.94h2.497v-2.634h1.943v2.634h3.354v1.94z"></path>
<path fill="#fff" style="fill: var(--color2, #fff)" d="M62.27 30.873c0 0.139-0.025 0.269-0.074 0.388s-0.118 0.224-0.207 0.313c-0.089 0.085-0.192 0.152-0.31 0.201s-0.244 0.075-0.377 0.075h-4.329c-0.409 0-0.822-0.045-1.241-0.134s-0.825-0.226-1.219-0.41c-0.389-0.189-0.756-0.428-1.101-0.716s-0.648-0.629-0.909-1.022c-0.256-0.398-0.458-0.851-0.606-1.358-0.148-0.512-0.222-1.082-0.222-1.709v-5.35h1.921v5.35c0 0.547 0.074 1.010 0.222 1.388 0.153 0.378 0.345 0.694 0.576 0.948s0.485 0.453 0.761 0.597c0.276 0.144 0.537 0.251 0.783 0.321 0.251 0.070 0.47 0.114 0.657 0.134 0.192 0.015 0.318 0.022 0.377 0.022h3.376v-8.76h1.921v9.722z"></path>
<path fill="#fff" style="fill: var(--color2, #fff)" d="M77.333 25.628c0 0.443-0.054 0.838-0.162 1.186s-0.256 0.657-0.443 0.925c-0.182 0.264-0.394 0.49-0.635 0.679s-0.495 0.343-0.761 0.463c-0.261 0.119-0.527 0.206-0.798 0.261-0.266 0.055-0.517 0.082-0.753 0.082h-4.344v-1.94h4.344c0.246-0.020 0.468-0.070 0.665-0.149 0.202-0.085 0.374-0.197 0.517-0.336s0.254-0.306 0.332-0.5c0.079-0.199 0.118-0.423 0.118-0.672v-0.88c-0.025-0.244-0.076-0.468-0.155-0.672s-0.187-0.378-0.325-0.522c-0.133-0.144-0.295-0.256-0.488-0.336-0.192-0.085-0.414-0.127-0.665-0.127h-4.329c-0.256 0-0.451 0.067-0.584 0.201s-0.199 0.328-0.199 0.582v7.976h-1.921v-7.976c0-0.497 0.089-0.92 0.266-1.268 0.182-0.348 0.406-0.629 0.672-0.843 0.271-0.214 0.564-0.368 0.879-0.463 0.315-0.099 0.606-0.149 0.872-0.149h4.344c0.433 0 0.822 0.057 1.167 0.172 0.345 0.109 0.648 0.259 0.909 0.448 0.266 0.184 0.49 0.398 0.672 0.642 0.187 0.244 0.34 0.5 0.458 0.769 0.123 0.264 0.212 0.532 0.266 0.806 0.054 0.269 0.081 0.522 0.081 0.761v0.88z"></path>
</symbol>
</defs>
</svg>
